<?xml version="1.0" encoding="UTF-8"?>
<!DOCTYPE svg PUBLIC "-//W3C//DTD SVG 1.1//EN" "http://www.w3.org/Graphics/SVG/1.1/DTD/svg11.dtd">
<svg xmlns="http://www.w3.org/2000/svg" version="1.1" width="1000" height="200" viewBox='0 0 1000 200'>
<title>bcarotene/molec_CAM-B3LYPp2p.xyz</title>
<path id="beta-carotene" d="M 39.52,46.43 63.52,88 21.95,112 21.95,160 63.52,184 105.09,160 105.09,112 63.52,88 87.52,46.43 63.52,88 z M 105.09,160 146.66,184 z M 105.09,112 l 41.57,-24 41.57,24 -41.57,-24 z m 83.14,0 41.57,-24 41.57,24 -41.57,-24 z m 83.14,0 41.57,-24 41.57,24 -41.57,-24 z m 83.14,0 41.57,-24 41.57,24 -41.57,-24 z m 83.14,0 41.57,-24 41.57,24 -41.57,-24 z m 83.14,0 41.57,-24 41.57,24 -41.57,-24 z m 83.14,0 41.57,-24 41.57,24 -41.57,-24 z m 83.14,0 41.57,-24 41.57,24 -41.57,-24 z m 83.14,0 41.57,-24 41.57,24 -41.57,-24 z m 83.14,0 41.57,-24 41.57,24 41.57,-24 0,-48 -41.57,-24 -41.57,24 -41.57,-24 41.57,24 0,48 z m 59.14,41.57 24,-41.57 24,41.57 -24,-41.57 z M 229.8,88 229.8,40 z m 166.28,0 0,-48 z m 207.85,24 0,48 z m 166.28,0 0,48 z M 98.52,156 98.52,116 z M 901.49,84 901.49,44 z M 146.66,96 l 34.64,20 z m 83.14,0 34.64,20 z m 83.14,0 34.64,20 z m 83.14,0 34.64,20 z m 83.14,0 34.64,20 z m 83.14,0 34.64,20 z m 83.14,0 34.64,20 z m 83.14,0 34.64,20 z m 83.14,0 34.64,20 z" fill="none" stroke="#000" stroke-width="2px" />
</svg>