<?xml version="1.0" encoding="UTF-8" standalone="no"?>
<!-- Created with Inkscape (http://www.inkscape.org/) -->

<svg
   xmlns:svg="http://www.w3.org/2000/svg"
   xmlns="http://www.w3.org/2000/svg"
   version="1.1"
   width="281pt"
   height="276pt"
   viewBox="0 0 281 276"
   id="svg2">
<title>C60/molec_CAM-B3LYPp2p.xyz</title>
  <defs
     id="defs306" />
  <g
     transform="translate(257.868,147.59509)"
     id="g4"
     style="fill:#161413;fill-rule:nonzero;stroke:none">
    <path
       d="M 1.86629,54.5519 C 1.86629,54.5519 0,53.714 0,53.714 0,53.714 15.8708,0 15.8708,0 c 0,0 2.0157,0.343658 2.0157,0.343658 0,0 -16.02021,54.208242 -16.02021,54.208242 z"
       id="path6" />
  </g>
  <g
     transform="translate(273.739,119.33309)"
     id="g8"
     style="fill:#161413;fill-rule:nonzero;stroke:none">
    <path
       d="m 0.245694,3.44642 c 0,0 1.032896,-3.248497 1.032896,-3.248497 0,0 0.98277,-0.197923 0.98277,-0.197923 0,0 -0.24569,28.4586 -0.24569,28.4586 0,0 -2.01567,-0.0493 -2.01567,-0.0493 0,0 0.245694,-24.96288 0.245694,-24.96288 z"
       id="path10" />
  </g>
  <g
     transform="translate(268.31209,137.12782)"
     id="g12"
     style="fill:#161413;fill-rule:nonzero;stroke:none">
    <path
       d="m 0.0491387,0 c 0,0 2.0628413,0.0492346 2.0628413,0.0492346 0,0 -0.09729,8.4673654 -0.09729,8.4673654 0,0 -2.01469,0 -2.01469,0 C 0,8.5166 0.0491387,0 0.0491387,0 z"
       id="path14" />
  </g>
  <g
     transform="translate(243.667,201.16209)"
     id="g16"
     style="fill:#161413;fill-rule:nonzero;stroke:none">
    <path
       d="M 0.737081,25.0594 C 0.737081,25.0594 0,24.3711 0,24.3711 c 0,0 0.834375,-3.2002 0.834375,-3.2002 C 0.834375,21.1709 14.2502,0 14.2502,0 c 0,0 1.7199,1.08316 1.7199,1.08316 0,0 -15.233019,23.97624 -15.233019,23.97624 z"
       id="path18" />
  </g>
  <g
     transform="translate(247.646,199.12018)"
     id="g20"
     style="fill:#161413;fill-rule:nonzero;stroke:none">
    <path
       d="M 1.71985,8.86223 C 1.71985,8.86223 0,7.77808 0,7.77808 0,7.77808 4.91387,0 4.91387,0 c 0,0 1.71986,1.08316 1.71986,1.08316 0,0 -4.91388,7.77907 -4.91388,7.77907 z"
       id="path22" />
  </g>
  <g
     transform="translate(241.161,196.78009)"
     id="g24"
     style="fill:#161413;fill-rule:nonzero;stroke:none">
    <path
       d="M 0,1.37758 C 0,1.37758 0.933636,0 0.933636,0 c 0,0 0.982774,0.0974845 0.982774,0.0974845 0,0 1.42404,25.4553155 1.42404,25.4553155 0,0 -0.83438,3.2002 -0.83438,3.2002 0,0 -1.03191,-0.4431 -1.03191,-0.4431 C 1.47416,28.3099 0,1.37758 0,1.37758 z"
       id="path26" />
  </g>
  <g
     transform="translate(198.705,225.09009)"
     id="g28"
     style="fill:#161413;fill-rule:nonzero;stroke:none">
    <path
       d="m 0.687942,36.6305 c 0,0 -0.491387,-0.8862 -0.491387,-0.8862 C 0.196555,35.7443 0,34.6109 0,34.6109 0,34.6109 43.93,0 43.93,0 c 0,0 1.0319,0.443111 1.0319,0.443111 0,0 0.7371,0.688299 0.7371,0.688299 0,0 -45.011058,35.49909 -45.011058,35.49909 z"
       id="path30" />
  </g>
  <g
     transform="translate(241.258,144.68909)"
     id="g32"
     style="fill:#161413;fill-rule:nonzero;stroke:none">
    <path
       d="m 15.0866,0.197923 c 0,0 1.1292,-0.197923 1.1292,-0.197923 0,0 0.9346,0.444096 0.9346,0.444096 0,0 -15.33128,51.744604 -15.33128,51.744604 0,0 -0.982779,-0.0975 -0.982779,-0.0975 0,0 -0.836341,-0.838 -0.836341,-0.838 0,0 15.0866,-51.055277 15.0866,-51.055277 z"
       id="path34" />
  </g>
  <g
     transform="translate(236.344,145.52709)"
     id="g36"
     style="fill:#161413;fill-rule:nonzero;stroke:none">
    <path
       d="m 13.7107,0 c 0,0 1.9655,0.590815 1.9655,0.590815 0,0 -13.71065,46.328785 -13.71065,46.328785 C 1.96555,46.9196 0,46.3298 0,46.3298 0,46.3298 13.7107,0 13.7107,0 z"
       id="path38" />
  </g>
  <g
     transform="translate(197.231,195.94209)"
     id="g40"
     style="fill:#161413;fill-rule:nonzero;stroke:none">
    <path
       d="m 0.638803,16.6905 c 0,0 -0.638803,-0.836 -0.638803,-0.836 0,0 0.39311,-1.2308 0.39311,-1.2308 0,0 43.63419,-14.6237 43.63419,-14.6237 0,0 0.8363,0.837973 0.8363,0.837973 0,0 -0.9336,1.377587 -0.9336,1.377587 0,0 -43.291197,14.47494 -43.291197,14.47494 z"
       id="path42" />
  </g>
  <g
     transform="translate(257.426,119.38309)"
     id="g44"
     style="fill:#161413;fill-rule:nonzero;stroke:none">
    <path
       d="m 16.4615,0 c 0,0 1.1302,0.148688 1.1302,0.148688 0,0 -1.0329,3.248502 -1.0329,3.248502 0,0 -15.576026,22.35351 -15.576026,22.35351 0,0 -0.9346181,-0.4441 -0.9346181,-0.4441 C 0.0481559,25.3066 0,23.5351 0,23.5351 0,23.5351 16.4615,0 16.4615,0 z"
       id="path46" />
  </g>
  <g
     transform="translate(228.236,105.40109)"
     id="g48"
     style="fill:#161413;fill-rule:nonzero;stroke:none">
    <path
       d="m 0,1.57551 c 0,0 0.344954,-1.230868 0.344954,-1.230868 0,0 0.982776,-0.344642 0.982776,-0.344642 0,0 27.86167,37.5168 27.86167,37.5168 0,0 0.0481,1.7714 0.0481,1.7714 0,0 -1.1292,0.1979 -1.1292,0.1979 C 28.1083,39.4861 0,1.57551 0,1.57551 z"
       id="path50" />
  </g>
  <g
     transform="translate(255.312,66.898991)"
     id="g52"
     style="fill:#161413;fill-rule:nonzero;stroke:none">
    <path
       d="m 0,1.2799 c 0,0 0.787202,-0.787554 0.787202,-0.787554 0,0 0.883518,-0.492346 0.883518,-0.492346 0,0 19.01768,52.4345 19.01768,52.4345 0,0 -0.9828,0.1979 -0.9828,0.1979 0,0 -1.1302,-0.1487 -1.1302,-0.1487 C 18.5754,52.4837 0,1.2799 0,1.2799 z"
       id="path54" />
  </g>
  <g
     transform="translate(169.073,251.43109)"
     id="g56"
     style="fill:#161413;fill-rule:nonzero;stroke:none">
    <path
       d="m 0,1.62376 c 0,0 0.0992602,-1.03393 0.0992602,-1.03393 0,0 1.6707198,-0.58983 1.6707198,-0.58983 0,0 27.86162,8.27043 27.86162,8.27043 0,0 0.1966,1.13338 0.1966,1.13338 0,0 -3.4889,0 -3.4889,0 C 26.3393,9.40381 0,1.62376 0,1.62376 z"
       id="path58" />
  </g>
  <g
     transform="translate(171.924,260.83509)"
     id="g60"
     style="fill:#161413;fill-rule:nonzero;stroke:none">
    <path
       d="M 0.588682,9.2561 C 0.588682,9.2561 0,7.28672 0,7.28672 0,7.28672 23.4883,0 23.4883,0 c 0,0 3.4889,0 3.4889,0 0,0 0.4913,0.886223 0.4913,0.886223 0,0 -26.879818,8.369877 -26.879818,8.369877 z"
       id="path62" />
  </g>
  <g
     transform="translate(171.41009,260.41818)"
     id="g64"
     style="fill:#161413;fill-rule:nonzero;stroke:none">
    <path
       d="M 0.590647,4.23418 C 0.590647,4.23418 0,2.31403 0,2.31403 0,2.31403 7.41995,0 7.41995,0 c 0,0 0.59064,1.91916 0.59064,1.91916 0,0 -7.419943,2.31502 -7.419943,2.31502 z"
       id="path66" />
  </g>
  <g
     transform="translate(169.172,175.06809)"
     id="g68"
     style="fill:#161413;fill-rule:nonzero;stroke:none">
    <path
       d="m 0,1.23086 c 0,0 0.491387,-1.034906 0.491387,-1.034906 0,0 1.129203,-0.195954 1.129203,-0.195954 0,0 26.83071,35.4981 26.83071,35.4981 0,0 -0.3931,1.2309 -0.3931,1.2309 0,0 -1.2285,0 -1.2285,0 C 26.8297,36.729 0,1.23086 0,1.23086 z"
       id="path70" />
  </g>
  <g
     transform="translate(166.028,180.58209)"
     id="g72"
     style="fill:#161413;fill-rule:nonzero;stroke:none">
    <path
       d="M 0,1.23086 C 0,1.23086 1.57146,0 1.57146,0 c 0,0 23.19444,30.7224 23.19444,30.7224 0,0 -1.5734,1.2309 -1.5734,1.2309 C 23.1925,31.9533 0,1.23086 0,1.23086 z"
       id="path74" />
  </g>
  <g
     transform="translate(168.681,211.79709)"
     id="g76"
     style="fill:#161413;fill-rule:nonzero;stroke:none">
    <path
       d="m 2.1621,39.6339 c 0,0 -1.670713,0.5898 -1.670713,0.5898 C 0.491387,40.2237 0,39.1907 0,39.1907 0,39.1907 27.3211,0 27.3211,0 c 0,0 1.2285,0 1.2285,0 0,0 0.6388,0.836003 0.6388,0.836003 0,0 -27.0263,38.797897 -27.0263,38.797897 z"
       id="path78" />
  </g>
  <g
     transform="translate(185.634,105.05509)"
     id="g80"
     style="fill:#161413;fill-rule:nonzero;stroke:none">
    <path
       d="M 0.786219,17.0352 C 0.786219,17.0352 0,16.2474 0,16.2474 c 0,0 0.0972947,-1.0822 0.0972947,-1.0822 C 0.0972947,15.1652 41.9143,0 41.9143,0 c 0,0 1.0329,0.690269 1.0329,0.690269 0,0 -0.3449,1.230861 -0.3449,1.230861 0,0 -41.816081,15.11407 -41.816081,15.11407 z"
       id="path82" />
  </g>
  <g
     transform="translate(190.056,111.80109)"
     id="g84"
     style="fill:#161413;fill-rule:nonzero;stroke:none">
    <path
       d="M 0.687942,14.9663 C 0.687942,14.9663 0,13.0964 0,13.0964 0,13.0964 36.0678,0 36.0678,0 c 0,0 0.687,1.86993 0.687,1.86993 0,0 -36.066858,13.09637 -36.066858,13.09637 z"
       id="path86" />
  </g>
  <g
     transform="translate(225.387,58.578091)"
     id="g88"
     style="fill:#161413;fill-rule:nonzero;stroke:none">
    <path
       d="M 0,0.492346 C 0,0.492346 0.982774,0 0.982774,0 c 0,0 1.081056,1.32992 1.081056,1.32992 0,0 2.11296,45.49298 2.11296,45.49298 0,0 -0.98277,0.3446 -0.98277,0.3446 0,0 -1.0329,-0.6902 -1.0329,-0.6902 C 2.16112,46.4773 0,0.492346 0,0.492346 z"
       id="path90" />
  </g>
  <g
     transform="translate(226.37,57.643491)"
     id="g92"
     style="fill:#161413;fill-rule:nonzero;stroke:none">
    <path
       d="M 1.08105,2.26459 C 1.08105,2.26459 0,0.93467 0,0.93467 0,0.93467 0.491387,0 0.491387,0 c 0,0 26.633213,7.87754 26.633213,7.87754 0,0 2.6043,1.87032 2.6043,1.87032 0,0 -0.7872,0.78754 -0.7872,0.78754 0,0 -27.86065,-8.27081 -27.86065,-8.27081 z"
       id="path94" />
  </g>
  <g
     transform="translate(238.064,43.266391)"
     id="g96"
     style="fill:#161413;fill-rule:nonzero;stroke:none">
    <path
       d="M 0,1.52608 C 0,1.52608 1.37687,0 1.37687,0 c 0,0 17.44423,23.4855 17.44423,23.4855 0,0 -0.7862,0.6395 -0.7862,0.6395 0,0 -2.6044,-1.8704 -2.6044,-1.8704 C 15.4305,22.2546 0,1.52608 0,1.52608 z"
       id="path98" />
  </g>
  <g
     transform="translate(233.887,47.796591)"
     id="g100"
     style="fill:#161413;fill-rule:nonzero;stroke:none">
    <path
       d="M 0,1.18084 C 0,1.18084 1.62256,0 1.62256,0 c 0,0 6.23963,8.36988 6.23963,8.36988 0,0 -1.62059,1.18084 -1.62059,1.18084 C 6.2416,9.55072 0,1.18084 0,1.18084 z"
       id="path102" />
  </g>
  <g
     transform="translate(168.927,121.30309)"
     id="g104"
     style="fill:#161413;fill-rule:nonzero;stroke:none">
    <path
       d="m 1.86629,53.7652 c 0,0 -1.129209,0.1959 -1.129209,0.1959 0,0 -0.737081,-0.9847 -0.737081,-0.9847 0,0 15.5278,-52.532304 15.5278,-52.532304 0,0 1.1794,-0.444096 1.1794,-0.444096 0,0 0.7862,0.787754 0.7862,0.787754 0,0 -15.62711,52.977446 -15.62711,52.977446 z"
       id="path106" />
  </g>
  <g
     transform="translate(138.018,90.433491)"
     id="g108"
     style="fill:#161413;fill-rule:nonzero;stroke:none">
    <path
       d="M 0.0481559,1.82129 C 0.0481559,1.82129 0,0.590421 0,0.590421 0,0.590421 1.03093,0 1.03093,0 c 0,0 46.68177,29.7871 46.68177,29.7871 0,0 -0.0973,1.0822 -0.0973,1.0822 0,0 -1.1793,0.4441 -1.1793,0.4441 0,0 -46.3879441,-29.49211 -46.3879441,-29.49211 z"
       id="path110" />
  </g>
  <g
     transform="translate(112.712,174.27909)"
     id="g112"
     style="fill:#161413;fill-rule:nonzero;stroke:none">
    <path
       d="M 0.588682,3.2997 C 0.588682,3.2997 0,2.31501 0,2.31501 0,2.31501 0.737081,1.28108 0.737081,1.28108 0.737081,1.28108 56.2147,0 56.2147,0 c 0,0 0.7371,0.984692 0.7371,0.984692 0,0 -0.4914,1.034908 -0.4914,1.034908 0,0 -55.871718,1.2801 -55.871718,1.2801 z"
       id="path114" />
  </g>
  <g
     transform="translate(93.5965,90.531591)"
     id="g116"
     style="fill:#161413;fill-rule:nonzero;stroke:none">
    <path
       d="m 1.42522,34.2669 c 0,0 -1.179526,-0.3929 -1.179526,-0.3929 C 0.245694,33.874 0,32.7898 0,32.7898 0,32.7898 43.4392,0 43.4392,0 c 0,0 0.9828,0.492346 0.9828,0.492346 0,0 0.0481,1.230864 0.0481,1.230864 0,0 -43.04488,32.54369 -43.04488,32.54369 z"
       id="path118" />
  </g>
  <g
     transform="translate(136.692,44.350091)"
     id="g120"
     style="fill:#161413;fill-rule:nonzero;stroke:none">
    <path
       d="M 0,0.787557 C 0,0.787557 0.982774,0 0.982774,0 c 0,0 1.031916,0.738519 1.031916,0.738519 0,0 0.34299,45.344881 0.34299,45.344881 0,0 -1.03093,0.5904 -1.03093,0.5904 0,0 -0.982779,-0.4923 -0.982779,-0.4923 C 0.343971,46.1815 0,0.787557 0,0.787557 z"
       id="path122" />
  </g>
  <g
     transform="translate(130.844,48.731191)"
     id="g124"
     style="fill:#161413;fill-rule:nonzero;stroke:none">
    <path
       d="M 0,0.0500224 C 0,0.0500224 2.01469,0 2.01469,0 c 0,0 0.29385,39.3877 0.29385,39.3877 0,0 -2.013708,0 -2.013708,0 C 0.294832,39.3877 0,0.0500224 0,0.0500224 z"
       id="path126" />
  </g>
  <g
     transform="translate(93.0562,124.40509)"
     id="g128"
     style="fill:#161413;fill-rule:nonzero;stroke:none">
    <path
       d="M 0,0.836003 C 0,0.836003 0.786023,0 0.786023,0 c 0,0 1.179527,0.392892 1.179527,0.392892 0,0 18.42745,50.761808 18.42745,50.761808 0,0 -0.7371,1.034 -0.7371,1.034 0,0 -1.0811,-0.1487 -1.0811,-0.1487 C 18.5748,52.04 0,0.836003 0,0.836003 z"
       id="path130" />
  </g>
  <g
     transform="translate(86.6681,176.44509)"
     id="g132"
     style="fill:#161413;fill-rule:nonzero;stroke:none">
    <path
       d="m 1.67091,38.9948 c 0,0 -1.228465,0.0492 -1.228465,0.0492 C 0.442445,39.044 0,37.8624 0,37.8624 0,37.8624 24.9629,0 24.9629,0 c 0,0 1.081,0.148688 1.081,0.148688 0,0 0.5887,0.984692 0.5887,0.984692 0,0 -24.96169,37.86142 -24.96169,37.86142 z"
       id="path134" />
  </g>
  <g
     transform="translate(93.4497,181.81309)"
     id="g136"
     style="fill:#161413;fill-rule:nonzero;stroke:none">
    <path
       d="M 1.71985,33.9226 C 1.71985,33.9226 0,32.8385 0,32.8385 0,32.8385 21.621,0 21.621,0 c 0,0 1.7199,1.1324 1.7199,1.1324 0,0 -21.62105,32.7902 -21.62105,32.7902 z"
       id="path138" />
  </g>
  <g
     transform="translate(116.545,250.98809)"
     id="g140"
     style="fill:#161413;fill-rule:nonzero;stroke:none">
    <path
       d="M 0.146433,2.60943 C 0.146433,2.60943 0,1.57452 0,1.57452 0,1.57452 0.441266,0.58983 0.441266,0.58983 0.441266,0.58983 52.1362,0 52.1362,0 c 0,0 0.4914,1.03294 0.4914,1.03294 0,0 -0.0993,1.03393 -0.0993,1.03393 0,0 -52.381867,0.54256 -52.381867,0.54256 z"
       id="path142" />
  </g>
  <g
     transform="translate(117.478,256.05591)"
     id="g144"
     style="fill:#161413;fill-rule:nonzero;stroke:none">
    <path
       d="m 0,2.55921 c 0,0 0,-2.066864 0,-2.066864 C 0,0.492346 50.9087,0 50.9087,0 c 0,0 0,2.01763 0,2.01763 0,0 -50.9087,0.54158 -50.9087,0.54158 z"
       id="path146" />
  </g>
  <g
     transform="translate(49.2738,110.42309)"
     id="g148"
     style="fill:#161413;fill-rule:nonzero;stroke:none">
    <path
       d="M 0.442445,1.96938 C 0.442445,1.96938 0,0.786769 0,0.786769 0,0.786769 0.982774,0 0.982774,0 c 0,0 43.339926,12.8985 43.339926,12.8985 0,0 0.2457,1.0841 0.2457,1.0841 0,0 -0.786,0.836 -0.786,0.836 0,0 -43.339955,-12.84922 -43.339955,-12.84922 z"
       id="path150" />
  </g>
  <g
     transform="translate(51.485,117.07009)"
     id="g152"
     style="fill:#161413;fill-rule:nonzero;stroke:none">
    <path
       d="M 0,1.96938 C 0,1.96938 0.540329,0 0.540329,0 c 0,0 37.591071,11.1753 37.591071,11.1753 0,0 -0.5892,1.9201 -0.5892,1.9201 C 37.5422,13.0954 0,1.96938 0,1.96938 z"
       id="path154" />
  </g>
  <g
     transform="translate(87.4542,252.07009)"
     id="g156"
     style="fill:#161413;fill-rule:nonzero;stroke:none">
    <path
       d="m 3.39077,10.0439 c 0,0 -3.39077,0.0492 -3.39077,0.0492 0,0 0.147809,-1.13142 0.147809,-1.13142 C 0.147809,8.96168 27.3709,0 27.3709,0 c 0,0 1.7198,0.492346 1.7198,0.492346 0,0 0.1464,1.034914 0.1464,1.034914 0,0 -25.84633,8.51664 -25.84633,8.51664 z"
       id="path158" />
  </g>
  <g
     transform="translate(115.169,268.07109)"
     id="g160"
     style="fill:#161413;fill-rule:nonzero;stroke:none">
    <path
       d="m 0,3.34894 c 0,0 0.245694,-2.01862 0.245694,-2.01862 C 0.245694,1.33032 56.9026,0 56.9026,0 c 0,0 0.2949,2.0196 0.2949,2.0196 C 57.1975,2.0196 0,3.34894 0,3.34894 z"
       id="path162" />
  </g>
  <g
     transform="translate(190.744,12.789991)"
     id="g164"
     style="fill:#161413;fill-rule:nonzero;stroke:none">
    <path
       d="M 0,1.82227 C 0,1.82227 0.835358,0 0.835358,0 c 0,0 47.861142,30.4764 47.861142,30.4764 0,0 -1.3769,1.5261 -1.3769,1.5261 C 47.3196,32.0025 0,1.82227 0,1.82227 z"
       id="path166" />
  </g>
  <g
     transform="translate(163.325,4.4700913)"
     id="g168"
     style="fill:#161413;fill-rule:nonzero;stroke:none">
    <path
       d="M 3.14488,2.95408 C 3.14488,2.95408 0,0.984692 0,0.984692 0,0.984692 0.29385,0 0.29385,0 c 0,0 27.86265,8.27082 27.86265,8.27082 0,0 -0.5907,1.92038 -0.5907,1.92038 0,0 -24.42092,-7.23712 -24.42092,-7.23712 z"
       id="path170" />
  </g>
  <g
     transform="translate(180.79091,15.5701)"
     id="g172"
     style="fill:#161413;fill-rule:nonzero;stroke:none">
    <path
       d="M 0,1.92035 C 0,1.92035 0.540526,0 0.540526,0 c 0,0 7.272534,2.11748 7.272534,2.11748 0,0 -0.59065,1.96939 -0.59065,1.96939 C 7.22241,4.08687 0,1.92035 0,1.92035 z"
       id="path174" />
  </g>
  <g
     transform="translate(40.6745,200.91609)"
     id="g176"
     style="fill:#161413;fill-rule:nonzero;stroke:none">
    <path
       d="M 1.08066,2.21556 C 1.08066,2.21556 0,0.836988 0,0.836988 0,0.836988 0.786023,0 0.786023,0 c 0,0 45.207577,13.3918 45.207577,13.3918 0,0 0.4425,1.1816 0.4425,1.1816 0,0 -0.6392,0.8853 -0.6392,0.8853 0,0 -44.71624,-13.24314 -44.71624,-13.24314 z"
       id="path178" />
  </g>
  <g
     transform="translate(137.624,27.067991)"
     id="g180"
     style="fill:#161413;fill-rule:nonzero;stroke:none">
    <path
       d="m 1.08203,18.0207 c 0,0 -1.0319085,-0.7386 -1.0319085,-0.7386 C 0.0501215,17.2821 0,16.2474 0,16.2474 0,16.2474 43.6843,0 43.6843,0 c 0,0 1.769,0.394271 1.769,0.394271 0,0 -0.1464,1.181829 -0.1464,1.181829 0,0 -44.22487,16.4446 -44.22487,16.4446 z"
       id="path182" />
  </g>
  <g
     transform="translate(162.882,5.4547813)"
     id="g184"
     style="fill:#161413;fill-rule:nonzero;stroke:none">
    <path
       d="M 0,0.984692 C 0,0.984692 0.443231,0 0.443231,0 c 0,0 3.144879,1.96938 3.144879,1.96938 0,0 17.34499,19.39762 17.34499,19.39762 0,0 -0.7371,0.6405 -0.7371,0.6405 0,0 -1.769,-0.3943 -1.769,-0.3943 C 18.427,21.6132 0,0.984692 0,0.984692 z"
       id="path186" />
  </g>
  <g
     transform="translate(87.0117,262.11409)"
     id="g188"
     style="fill:#161413;fill-rule:nonzero;stroke:none">
    <path
       d="m 0,0.984692 c 0,0 0.442445,-0.9354574 0.442445,-0.9354574 C 0.442445,0.0492346 3.83321,0 3.83321,0 c 0,0 24.56979,7.28771 24.56979,7.28771 0,0 -0.2457,2.01861 -0.2457,2.01861 C 28.1573,9.30632 0,0.984692 0,0.984692 z"
       id="path190" />
  </g>
  <g
     transform="translate(105.08564,260.463)"
     id="g192"
     style="fill:#161413;fill-rule:nonzero;stroke:none">
    <path
       d="M 0,1.96938 C 0,1.96938 0.588682,0 0.588682,0 c 0,0 8.993368,2.65965 8.993368,2.65965 0,0 -0.59065,1.96939 -0.59065,1.96939 C 8.9914,4.62904 0,1.96938 0,1.96938 z"
       id="path194" />
  </g>
  <g
     transform="translate(41.5584,229.96409)"
     id="g196"
     style="fill:#161413;fill-rule:nonzero;stroke:none">
    <path
       d="m 0,1.32933 c 0,0 0.688139,-0.738515 0.688139,-0.738515 0,0 0.982771,-0.590815 0.982771,-0.590815 0,0 44.37269,31.067 44.37269,31.067 0,0 -0.1478,1.1314 -0.1478,1.1314 0,0 -0.4425,0.9355 -0.4425,0.9355 C 45.4533,33.1339 0,1.32933 0,1.32933 z"
       id="path198" />
  </g>
  <g
     transform="translate(23.476,208.54709)"
     id="g200"
     style="fill:#161413;fill-rule:nonzero;stroke:none">
    <path
       d="M 0,0.984692 C 0,0.984692 1.81774,0 1.81774,0 c 0,0 15.77336,19.0046 15.77336,19.0046 0,0 1.1795,3.0033 1.1795,3.0033 0,0 -0.786,0.64 -0.786,0.64 C 17.9846,22.6479 0,0.984692 0,0.984692 z"
       id="path202" />
  </g>
  <g
     transform="translate(29.622582,206.33427)"
     id="g204"
     style="fill:#161413;fill-rule:nonzero;stroke:none">
    <path
       d="M 0,1.2801 C 0,1.2801 1.57303,0 1.57303,0 c 0,0 5.8477,7.04153 5.8477,7.04153 0,0 -1.52408,1.2801 -1.52408,1.2801 C 5.89665,8.32163 0,1.2801 0,1.2801 z"
       id="path206" />
  </g>
  <g
     transform="translate(39.6428,201.75309)"
     id="g208"
     style="fill:#161413;fill-rule:nonzero;stroke:none">
    <path
       d="M 0,0.0482499 C 0,0.0482499 1.03172,0 1.03172,0 c 0,0 1.08065,1.37857 1.08065,1.37857 0,0 1.47417,26.83283 1.47417,26.83283 0,0 -0.98278,0.5908 -0.98278,0.5908 0,0 -1.17952,-3.0033 -1.17952,-3.0033 C 1.42424,25.7989 0,0.0482499 0,0.0482499 z"
       id="path210" />
  </g>
  <g
     transform="translate(91.2874,30.022091)"
     id="g212"
     style="fill:#161413;fill-rule:nonzero;stroke:none">
    <path
       d="M 0.196751,1.67417 C 0.196751,1.67417 0,0.591406 0,0.591406 0,0.591406 1.62099,0 1.62099,0 c 0,0 44.71601,13.2933 44.71601,13.2933 0,0 0.0501,1.0348 0.0501,1.0348 0,0 -0.9827,0.7875 -0.9827,0.7875 0,0 -45.207649,-13.44143 -45.207649,-13.44143 z"
       id="path214" />
  </g>
  <g
     transform="translate(5,154.88209)"
     id="g216"
     style="fill:#161413;fill-rule:nonzero;stroke:none">
    <path
       d="M 0,0.295408 C 0,0.295408 2.01449,0 2.01449,0 c 0,0 18.27921,53.6657 18.27921,53.6657 0,0 -1.8177,0.9847 -1.8177,0.9847 C 18.476,54.6504 0,0.295408 0,0.295408 z"
       id="path218" />
  </g>
  <g
     transform="translate(108.633,4.4200913)"
     id="g220"
     style="fill:#161413;fill-rule:nonzero;stroke:none">
    <path
       d="m 0.687942,2.01939 c 0,0 -0.539543,-0.9847 -0.539543,-0.9847 C 0.148399,1.03469 0,0 0,0 c 0,0 54.8398,0 54.8398,0 0,0 -0.1474,1.03469 -0.1474,1.03469 0,0 -0.4433,0.9847 -0.4433,0.9847 0,0 -53.561158,0 -53.561158,0 z"
       id="path222" />
  </g>
  <g
     transform="translate(81.2139,4.4200913)"
     id="g224"
     style="fill:#161413;fill-rule:nonzero;stroke:none">
    <path
       d="M 0.688139,12.1125 C 0.688139,12.1125 0,10.1921 0,10.1921 0,10.1921 27.4186,0 27.4186,0 c 0,0 0.1484,1.03469 0.1484,1.03469 0,0 -2.6545,2.06747 -2.6545,2.06747 0,0 -24.224361,9.01034 -24.224361,9.01034 z"
       id="path226" />
  </g>
  <g
     transform="translate(84.903582,16.1125)"
     id="g228"
     style="fill:#161413;fill-rule:nonzero;stroke:none">
    <path
       d="M 0.688139,5.16963 C 0.688139,5.16963 0,3.29832 0,3.29832 0,3.29832 8.84497,0 8.84497,0 c 0,0 0.73708,1.87032 0.73708,1.87032 0,0 -8.893911,3.29931 -8.893911,3.29931 z"
       id="path230" />
  </g>
  <g
     transform="translate(90.5014,5.4547813)"
     id="g232"
     style="fill:#161413;fill-rule:nonzero;stroke:none">
    <path
       d="m 2.40701,24.5673 c 0,0 -1.620987,0.5914 -1.620987,0.5914 0,0 -0.786023,-0.7385 -0.786023,-0.7385 0,0 15.6251,-22.35273 15.6251,-22.35273 0,0 2.6545,-2.06747 2.6545,-2.06747 0,0 0.5395,0.984692 0.5395,0.984692 0,0 -16.41209,23.582608 -16.41209,23.582608 z"
       id="path234" />
  </g>
  <g
     transform="translate(22.6899,150.15409)"
     id="g236"
     style="fill:#161413;fill-rule:nonzero;stroke:none">
    <path
       d="M 0,0.443111 C 0,0.443111 0.932849,0 0.932849,0 c 0,0 1.130581,0.148688 1.130581,0.148688 0,0 16.70717,50.613212 16.70717,50.613212 0,0 -0.786,0.8369 -0.786,0.8369 0,0 -0.9828,0.1477 -0.9828,0.1477 C 17.0018,51.7465 0,0.443111 0,0.443111 z"
       id="path238" />
  </g>
  <g
     transform="translate(18.222782,151.72691)"
     id="g240"
     style="fill:#161413;fill-rule:nonzero;stroke:none">
    <path
       d="M 0,0.641034 C 0,0.641034 1.91661,0 1.91661,0 c 0,0 16.55939,49.9731 16.55939,49.9731 0,0 -1.9656,0.5918 -1.9656,0.5918 C 16.5104,50.5649 0,0.641034 0,0.641034 z"
       id="path242" />
  </g>
  <g
     transform="translate(23.5738,110.91509)"
     id="g244"
     style="fill:#161413;fill-rule:nonzero;stroke:none">
    <path
       d="m 24.6682,0 c 0,0 1.0317,0.294423 1.0317,0.294423 0,0 0.4425,1.182617 0.4425,1.182617 0,0 -24.96287,37.91066 -24.96287,37.91066 0,0 -1.1305878,-0.1487 -1.1305878,-0.1487 C 0.0489422,39.239 0,37.4665 0,37.4665 0,37.4665 24.6682,0 24.6682,0 z"
       id="path246" />
  </g>
  <g
     transform="translate(6.27741,126.57209)"
     id="g248"
     style="fill:#161413;fill-rule:nonzero;stroke:none">
    <path
       d="M 0.982774,3.24948 C 0.982774,3.24948 0,0.195954 0,0.195954 0,0.195954 1.12962,0 1.12962,0 c 0,0 16.16678,21.8099 16.16678,21.8099 0,0 0.049,1.7725 0.049,1.7725 0,0 -0.9329,0.4431 -0.9329,0.4431 0,0 -15.429726,-20.77602 -15.429726,-20.77602 z"
       id="path250" />
  </g>
  <g
     transform="translate(36.5956,14.661291)"
     id="g252"
     style="fill:#161413;fill-rule:nonzero;stroke:none">
    <path
       d="M 1.5231,35.0056 C 1.5231,35.0056 0,33.6276 0,33.6276 0,33.6276 44.4705,0 44.4705,0 c 0,0 0.9828,1.82129 0.9828,1.82129 0,0 -43.9302,33.18431 -43.9302,33.18431 z"
       id="path254" />
  </g>
  <g
     transform="translate(21.3626,48.288891)"
     id="g256"
     style="fill:#161413;fill-rule:nonzero;stroke:none">
    <path
       d="m 3.19402,22.746 c 0,0 -2.30913,1.7722 -2.30913,1.7722 C 0.88489,24.5182 0,23.9769 0,23.9769 0,23.9769 15.233,0 15.233,0 c 0,0 1.5231,1.37798 1.5231,1.37798 0,0 -13.56208,21.36802 -13.56208,21.36802 z"
       id="path258" />
  </g>
  <g
     transform="translate(34.035518,53.313973)"
     id="g260"
     style="fill:#161413;fill-rule:nonzero;stroke:none">
    <path
       d="M 1.67091,10.5854 C 1.67091,10.5854 0,9.50169 0,9.50169 0,9.50169 5.99551,0 5.99551,0 c 0,0 1.71986,1.08277 1.71986,1.08277 0,0 -6.04446,9.50263 -6.04446,9.50263 z"
       id="path262" />
  </g>
  <g
     transform="translate(5,126.76809)"
     id="g264"
     style="fill:#161413;fill-rule:nonzero;stroke:none">
    <path
       d="m 0.294636,0 c 0,0 0.982774,0 0.982774,0 0,0 0.98277,3.05353 0.98277,3.05353 0,0 -0.24569,25.06037 -0.24569,25.06037 C 2.01449,28.1139 0,28.4093 0,28.4093 0,28.4093 0.294636,0 0.294636,0 z"
       id="path266" />
  </g>
  <g
     transform="translate(10.006518,143.40591)"
     id="g268"
     style="fill:#161413;fill-rule:nonzero;stroke:none">
    <path
       d="m 0.0988474,0 c 0,0 2.0144926,0 2.0144926,0 0,0 -0.09789,9.84692 -0.09789,9.84692 0,0 -2.01545,0 -2.01545,0 C 0,9.84692 0.0988474,0 0.0988474,0 z"
       id="path270" />
  </g>
  <g
     transform="translate(48.4378,29.874991)"
     id="g272"
     style="fill:#161413;fill-rule:nonzero;stroke:none">
    <path
       d="m 1.47416,35.1537 c 0,0 -0.982773,-0.4433 -0.982773,-0.4433 C 0.491387,34.7104 0,33.7747 0,33.7747 0,33.7747 42.0635,0 42.0635,0 c 0,0 0.786,0.738519 0.786,0.738519 0,0 0.1968,1.082771 0.1968,1.082771 0,0 -41.57214,33.33241 -41.57214,33.33241 z"
       id="path274" />
  </g>
  <g
     transform="translate(54.1387,36.275491)"
     id="g276"
     style="fill:#161413;fill-rule:nonzero;stroke:none">
    <path
       d="M 1.27741,31.8544 C 1.27741,31.8544 0,30.2793 0,30.2793 0,30.2793 37.7869,0 37.7869,0 c 0,0 1.2285,1.57511 1.2285,1.57511 0,0 -37.73799,30.27929 -37.73799,30.27929 z"
       id="path278" />
  </g>
  <g
     transform="translate(47.8975,64.585391)"
     id="g280"
     style="fill:#161413;fill-rule:nonzero;stroke:none">
    <path
       d="M 0,1.32894 C 0,1.32894 1.03172,0 1.03172,0 c 0,0 0.98277,0.443308 0.98277,0.443308 0,0 0.34456,45.394292 0.34456,45.394292 0,0 -0.98277,0.7868 -0.98277,0.7868 0,0 -1.031719,-0.2944 -1.031719,-0.2944 C 0.344561,46.33 0,1.32894 0,1.32894 z"
       id="path282" />
  </g>
  <g
     transform="translate(5.29464,72.413791)"
     id="g284"
     style="fill:#161413;fill-rule:nonzero;stroke:none">
    <path
       d="m 16.019,0 c 0,0 0.9339,0.393286 0.9339,0.393286 0,0 0.786,0.837574 0.786,0.837574 0,0 -15.62651,52.92724 -15.62651,52.92724 0,0 -1.129616,0.1959 -1.129616,0.1959 C 0.982774,54.354 0,54.2073 0,54.2073 0,54.2073 16.019,0 16.019,0 z"
       id="path286" />
  </g>
  <g
     transform="translate(22.2475,63.649691)"
     id="g288"
     style="fill:#161413;fill-rule:nonzero;stroke:none">
    <path
       d="M 0.786023,9.99502 C 0.786023,9.99502 0,9.15744 0,9.15744 c 0,0 2.30913,-1.77225 2.30913,-1.77225 0,0 23.88117,-7.38519 23.88117,-7.38519 0,0 0.4914,0.935654 0.4914,0.935654 0,0 -1.0317,1.328936 -1.0317,1.328936 0,0 -24.863977,7.73043 -24.863977,7.73043 z"
       id="path290" />
  </g>
  <g
     transform="translate(86.4714,215.44009)"
     id="g292"
     style="fill:#161413;fill-rule:nonzero;stroke:none">
    <path
       d="m 0,0.934473 c 0,0 0.639196,-0.8852384 0.639196,-0.8852384 C 0.639196,0.0492346 1.86766,0 1.86766,0 c 0,0 28.64704,36.1372 28.64704,36.1372 0,0 -0.4412,0.9847 -0.4412,0.9847 0,0 -1.7199,-0.4923 -1.7199,-0.4923 C 28.3536,36.6296 0,0.934473 0,0.934473 z"
       id="path294" />
  </g>
  <g
     transform="translate(182.931,26.723691)"
     id="g296"
     style="fill:#161413;fill-rule:nonzero;stroke:none">
    <path
       d="m 0,1.92035 c 0,0 0.146433,-1.181831 0.146433,-1.181831 0,0 0.687942,-0.738519 0.687942,-0.738519 0,0 43.095625,30.9197 43.095625,30.9197 0,0 -0.4914,0.9347 -0.4914,0.9347 0,0 -0.9828,0.4923 -0.9828,0.4923 C 42.4558,32.3467 0,1.92035 0,1.92035 z"
       id="path298" />
  </g>
  <g
     transform="translate(181.604,33.222291)"
     id="g300"
     style="fill:#161413;fill-rule:nonzero;stroke:none">
    <path
       d="M 0,1.67417 C 0,1.67417 1.17933,0 1.17933,0 c 0,0 38.47657,27.6214 38.47657,27.6214 0,0 -1.1793,1.6241 -1.1793,1.6241 C 38.4766,29.2455 0,1.67417 0,1.67417 z"
       id="path302" />
  </g>
</svg>
