<?xml version="1.0" encoding="UTF-8" standalone="no"?>
<svg
   xmlns:dc="http://purl.org/dc/elements/1.1/"
   xmlns:cc="http://creativecommons.org/ns#"
   xmlns:rdf="http://www.w3.org/1999/02/22-rdf-syntax-ns#"
   xmlns:svg="http://www.w3.org/2000/svg"
   xmlns="http://www.w3.org/2000/svg"
   id="svg2"
   height="620"
   width="620"
   viewBox="0 0 620 620"
   version="1.1">
<title>CrCO6/molec_B3LYPp2p.xyz</title>
  <defs
     id="defs4" />
  <metadata
     id="metadata7">
    <rdf:RDF>
      <cc:Work
         rdf:about="">
        <dc:format>image/svg+xml</dc:format>
        <dc:type
           rdf:resource="http://purl.org/dc/dcmitype/StillImage" />
        <dc:title></dc:title>
      </cc:Work>
    </rdf:RDF>
  </metadata>
  <g
     id="layer1"
     transform="translate(-1526,-533.22)">
    <path
       style="fill:#000000"
       id="path2996"
       d="m 1833.1,1136.1 c -2,-0.7 -4.9,-2.2 -6.7,-3.4 -13,-8.9 -14.8,-33.4 -3.3,-45 5.3,-5.3 9.7,-6.9 18.4,-6.9 9.1,0 13.6,2 19,8.2 9,10.6 8.7,30.3 -0.6,40.5 -6.5,6.9 -17.8,9.8 -26.8,6.6 z m 16.5,-7.5 c 7.4,-3.7 11.2,-11.8 10.2,-22.3 -1,-9.4 -4.4,-14.9 -11.3,-17.9 -9.2,-3.8 -19.6,0.4 -23.8,9.5 -2.4,5.3 -2.4,16.7 0,22.1 1.8,4.1 7.1,8.9 10.8,10 4.5,1.3 9.9,0.7 14.1,-1.4 z m -29.5,-83.1 v -28.1 h 2.3 2.4 v 28.1 28.1 h -2.4 -2.3 z m 19,0 v -28.1 h 2.4 2.4 v 28.1 28.1 h -2.4 -2.4 z m 18.1,0 v -28.1 h 2.9 2.8 v 28.1 28.1 h -2.8 -2.9 z m 240.2,-34.7 c -15.7,-4.8 -24.2,-20.5 -21,-38.8 2.9,-16.96 14.9,-26.82 31.5,-25.86 11.8,0.68 21.1,6.94 25.9,17.41 2,4.06 2.2,6.33 2.2,15.25 0,9.35 -0.2,11.06 -2.5,15.9 -5.2,11 -14.9,17.1 -27.3,16.9 -3.5,0 -7.4,-0.4 -8.8,-0.8 z m 18.7,-8.7 c 13,-5.5 16,-30.18 5.4,-42.09 -4.4,-4.89 -8.2,-6.48 -15.2,-6.45 -6.8,0 -12.2,2.31 -16.2,6.97 -3.8,4.3 -5.3,9.52 -5.4,18.74 -0.1,9.43 2,15.03 7.7,19.93 6.7,5.9 14.7,6.8 23.7,2.9 z m -282.6,7.3 c -13.7,-4.5 -20.4,-25.22 -13.4,-41.57 7.4,-16.96 33.2,-19.2 41.8,-3.63 2.7,4.79 2.4,5.83 -1.8,6.81 -2,0.48 -2.7,0 -4.3,-2.9 -3.9,-7.1 -11.8,-9.66 -20,-6.51 -7.4,2.8 -11,9.54 -11,20.53 0,10.57 3.3,17.07 9.9,20.07 9.6,4.3 20.1,0 23,-9.3 0.6,-2.2 2,-2.5 6,-1.4 l 2.3,0.7 -3.2,6.1 c -4.3,8.2 -9.4,11.6 -18.6,12 -3.9,0.3 -8.1,-0.2 -10.7,-0.9 z m -272.4,-3.5 c -10.8,-1.5 -20.3,-9.9 -23.7,-20.94 -1.3,-4.26 -1.6,-7.59 -1.2,-14.02 0.6,-9.99 2.7,-15.38 8.3,-21.51 5.6,-6.05 12,-8.64 21.5,-8.7 6.9,-0.1 8.4,0.29 14.1,3.12 11.1,5.45 16.3,14.97 16.3,29.71 0,11.15 -2.1,17.04 -8.9,23.94 -7.2,7.2 -15.6,9.9 -26.4,8.4 z m 11.6,-7.7 c 5.3,-1.5 12.3,-8.62 13.8,-14.16 1.7,-6.16 1.5,-15.97 -0.5,-21.8 -1.8,-5.6 -6.6,-11.05 -11.5,-13.1 -7.2,-3.04 -17.8,-0.83 -23.5,4.94 -4.7,4.65 -5.8,8.47 -5.8,19.48 -0.1,8.63 0.1,10.56 2,14.02 5,9.32 15.1,13.52 25.5,10.62 z m 464.7,-35.24 c -13.9,-7.37 -25.5,-13.54 -25.6,-13.71 -0.2,-0.17 0.2,-1.34 1,-2.59 l 1.2,-2.29 24.8,13.22 c 13.6,7.26 25.1,13.51 25.5,13.88 0.2,0.36 0.1,1.61 -0.5,2.77 -1.2,2.08 -1.6,1.92 -26.4,-11.28 z m -429.5,8.17 c -0.3,-1.33 -0.4,-2.61 -0.2,-2.83 0.2,-0.21 11.9,-5.75 26,-12.32 l 25.7,-11.94 0.9,2.43 c 0.4,1.33 0.6,2.6 0.4,2.82 -0.4,0.39 -42.9,20.26 -49.1,22.94 -3,1.29 -3.2,1.26 -3.7,-1.1 z m 437.3,-25.34 c -23.8,-12.76 -24.9,-13.49 -23.9,-15.45 0.6,-1.14 1.2,-2.19 1.3,-2.36 0.3,-0.32 49,25.39 50.3,26.56 0.9,0.74 -0.8,4.75 -2,4.68 -0.3,0 -11.9,-6.06 -25.7,-13.43 z m -445.2,8.02 c -0.6,-1.34 -1,-2.5 -0.9,-2.61 0.2,-0.1 11.9,-5.56 26,-12.15 22.8,-10.59 25.9,-11.81 27,-10.48 0.6,0.82 1.1,1.98 1.1,2.56 0,0.58 -7.8,4.65 -17.3,9.04 -9.6,4.39 -21.4,9.8 -26.1,12.02 l -8.8,4.04 z m 77.1,-6.45 c -9.3,-2.98 -15.2,-11.17 -17.2,-23.7 -1.9,-12.11 1.4,-22.96 8.8,-29.7 12.8,-11.42 32.7,-8.7 39.9,5.47 2.2,4.18 1.8,5 -2.5,5.9 -2.6,0.54 -3,0.25 -5.1,-3.69 -4.1,-7.75 -14.3,-10.41 -23,-6.01 -7.3,3.68 -10.5,10.4 -10.5,22.16 0,11.77 3.2,18.49 10.5,22.17 9.8,4.96 20,1.33 24.4,-8.65 1,-2.19 1.7,-4.08 1.8,-4.19 0.3,-0.59 7.2,1.84 7.2,2.51 0,2.03 -3.2,7.96 -5.8,11.06 -1.7,1.89 -4.8,4.33 -7,5.43 -5,2.57 -15.5,3.18 -21.5,1.24 z m 162,-33.86 v -34.31 h 2.4 2.4 v 34.31 34.32 h -2.4 -2.4 z m 140.1,31.96 c -9.2,-2.99 -15.1,-11.18 -17.1,-23.71 -1.9,-12.11 1.3,-22.95 8.7,-29.69 12.7,-11.43 32.7,-8.71 40,5.46 2.2,4.18 1.8,5 -2.5,5.9 -2.7,0.54 -3,0.26 -5.1,-3.69 -4.1,-7.75 -14.3,-10.41 -23,-6 -7.3,3.67 -10.5,10.39 -10.5,22.16 0,11.76 3.2,18.48 10.5,22.16 9.8,4.97 20,1.33 24.4,-8.65 0.9,-2.19 1.7,-4.08 1.8,-4.19 0.3,-0.58 7.2,1.84 7.2,2.52 0,2.03 -3.2,7.96 -6,11.05 -1.6,1.89 -4.7,4.33 -6.8,5.44 -5.1,2.56 -15.7,3.17 -21.6,1.24 z m 75.9,-15.84 c -13.5,-7.27 -24.9,-13.41 -25.2,-13.65 -0.6,-0.74 0.9,-4.37 2,-4.37 0.9,0 49,25.32 50.5,26.57 0.4,0.33 -0.1,1.51 -1,2.63 l -1.6,2.04 z M 1592,936.8 c -0.5,-1.29 -0.8,-2.51 -0.6,-2.71 0.2,-0.21 12,-5.73 26.1,-12.28 l 25.7,-11.92 1.3,2.37 c 0.7,1.3 1.1,2.46 0.9,2.59 -0.1,0.12 -12,5.63 -26.3,12.25 l -26,12.04 z m 125.4,-36.93 c -2.7,-5.87 -4.6,-10.97 -4.3,-11.32 0.8,-0.79 88.8,-31.28 90.4,-31.28 0.5,0 1.4,0.97 2,2.15 0.9,2.06 -0.6,3.08 -35.8,23.59 -20.2,11.79 -39.2,22.81 -42.1,24.49 l -5.3,3.05 z m 194.4,-15.67 c -37.6,-22.84 -40.1,-24.52 -39.1,-26.38 0.5,-1.09 1.1,-2.16 1.3,-2.36 0.7,-0.73 88.1,30.89 88.1,31.83 0,0.53 -2.3,5.54 -5.1,11.13 l -4.9,10.19 z m -27.9,-58.98 c -0.7,-2.02 -0.6,-2.76 0.7,-3.78 2.5,-1.88 3,-1.67 4.4,1.75 1.1,2.71 1.1,3.17 -0.2,3.75 -2.8,1.2 -3.9,0.79 -4.9,-1.72 z m -94.6,-0.13 c -0.3,-0.4 0.1,-2.14 0.8,-3.85 1.3,-3.06 1.4,-3.1 3.6,-1.6 2.1,1.35 2.2,1.85 1.4,3.86 -1.1,2.22 -4.9,3.25 -5.8,1.59 z m 107.6,-5.23 c -2,-4.54 -2.1,-5.09 -0.7,-6.16 2.7,-2.04 3.6,-1.37 5.7,4.17 1.7,4.27 1.8,5.57 0.9,6.19 -2.5,1.58 -3.8,0.67 -5.9,-4.2 z m -180.7,2.79 c -5,-1.59 -10.7,-7.87 -12.7,-13.86 -2,-6.46 -2.1,-16.53 -0.1,-22.5 4.7,-13.76 23.8,-19.48 34.7,-10.37 2.6,2.2 7.2,9.61 6.5,10.31 -0.2,0.16 -1.7,0.55 -3.2,0.88 -2.6,0.54 -3,0.25 -4.8,-2.98 -5,-9.55 -20.5,-8.95 -26,1.01 -2.5,4.65 -2.3,20.89 0.4,25.42 5.8,10.01 20.7,10.04 25.8,0.1 2.7,-5.24 2.5,-5.09 5.9,-4.37 2.7,0.61 2.8,0.69 1.7,4.13 -1.5,4.87 -7.8,11.2 -12.5,12.48 -4.7,1.29 -11.4,1.21 -15.7,-0.2 z m 234.4,0 c -4.9,-1.59 -10.6,-7.87 -12.6,-13.86 -2,-6.46 -2.1,-16.53 -0.1,-22.5 4.7,-13.76 23.8,-19.48 34.7,-10.37 2.5,2.2 7.2,9.61 6.4,10.31 -0.1,0.16 -1.6,0.55 -3.1,0.88 -2.6,0.54 -3,0.25 -4.8,-2.98 -5,-9.55 -20.6,-8.95 -26,1.01 -2.5,4.65 -2.3,20.89 0.4,25.42 5.8,10.01 20.7,10.04 25.8,0.1 2.7,-5.24 2.5,-5.09 5.8,-4.37 2.8,0.61 2.8,0.69 1.8,4.13 -1.5,4.87 -7.9,11.2 -12.5,12.48 -4.7,1.29 -11.4,1.21 -15.8,-0.2 z m -179.4,-0.43 -2.4,-0.34 2.9,-7.09 c 3,-7.16 4.2,-8.26 6.4,-5.67 1,1.15 0.8,2.48 -0.9,6.91 -2.7,6.57 -2.7,6.6 -6,6.19 z m 140.6,-2.84 c -0.5,-1.44 -1.9,-4.84 -2.9,-7.55 l -2,-4.92 2.3,-1.48 c 2.2,-1.48 2.2,-1.47 5.5,6.84 1.8,4.56 3.2,8.62 2.9,9.01 -0.2,0.39 -1.5,0.72 -2.7,0.72 -1.5,0 -2.5,-0.77 -3.1,-2.62 z m 11.1,-9.97 c -3.9,-10.02 -4,-10.37 -2.2,-11.71 1,-0.75 2,-1.39 2.3,-1.41 0.3,0 1.6,2.87 3,6.41 1.4,3.53 3.4,8.64 4.4,11.33 l 2,4.91 -2.7,0.4 c -2.7,0.39 -2.8,0.16 -6.8,-9.93 z m -172,8.99 c -0.8,-0.48 0.1,-4.02 3.3,-11.82 l 4.4,-11.14 2.3,1.73 2.3,1.73 -4.2,10.12 c -4,9.92 -5.2,11.29 -8.1,9.38 z m 88.2,-45.97 V 732.4 h 2.4 2.4 v 40.03 40.04 h -2.4 -2.4 z m -175.8,22.89 c -14.6,-5.47 -24.9,-9.84 -25,-10.61 -0.2,-0.73 0.1,-1.92 0.6,-2.65 0.6,-1.1 5.5,0.41 26.2,8.1 22.8,8.54 25.2,9.62 24.7,11.34 -0.3,1.05 -0.8,2.18 -1.2,2.51 -0.3,0.33 -11.7,-3.58 -25.3,-8.69 z m 330.5,4.8 -0.9,-2.56 24.3,-10.67 c 13.3,-5.86 24.4,-10.55 24.6,-10.41 0.1,0.14 0.4,1.32 0.7,2.62 0.6,2.28 0,2.65 -13.4,8.5 -7.8,3.36 -18.7,8.14 -24.2,10.61 l -10.1,4.49 z m -324.5,-22.73 c -17.5,-6.53 -24.6,-9.62 -24.6,-10.65 0,-4.11 1.3,-3.85 26.4,5.5 13.7,5.1 25.2,9.55 25.5,9.9 0.8,0.71 -1.1,4.63 -2.2,4.52 -0.4,-0.1 -11.7,-4.21 -25.1,-9.27 z m 316.8,5.19 c -1,-2.29 -0.9,-2.39 23.4,-12.95 24.7,-10.8 26,-11.12 25.9,-6.73 0,0.95 -7.6,4.78 -23,11.44 -12.7,5.5 -23.5,10.13 -24.1,10.28 -0.6,0.16 -1.5,-0.76 -2.2,-2.04 z m -377.3,-5.28 c -16,-7.3 -15.5,-33.76 0.8,-40.57 10.2,-4.25 22.1,1.12 25.6,11.6 1.8,5.16 1.6,13.37 -0.4,18.57 -3.9,10.21 -15.9,15 -26,10.4 z m 17.4,-6.88 c 4.4,-4.46 5.9,-10.54 4.4,-17.68 -1.9,-8.56 -7.6,-13.32 -15.1,-12.47 -5.5,0.62 -8.8,2.89 -11,7.69 -4,8.88 -1.1,21.18 5.9,24.77 5.2,2.7 11.7,1.75 15.8,-2.31 z m 427.8,1.16 c -16,-7.3 -15.6,-33.76 0.7,-40.56 10.2,-4.26 22.1,1.11 25.7,11.6 1.7,5.15 1.5,13.36 -0.4,18.56 -3.9,10.21 -15.9,15 -26,10.4 z m 17.2,-6.88 c 4.5,-4.46 6,-10.54 4.5,-17.68 -1.8,-8.56 -7.5,-13.32 -15.2,-12.47 -5.4,0.62 -8.6,2.89 -10.8,7.69 -4,8.88 -1.2,21.18 5.8,24.77 5.2,2.71 11.7,1.75 15.7,-2.31 z m -395.2,-4.96 -25.3,-9.53 0.9,-2.53 1,-2.55 25.5,9.59 c 23.3,8.7 25.6,9.77 25.1,11.51 -0.3,1.05 -0.9,2.16 -1.2,2.47 -0.3,0.3 -12.1,-3.73 -26,-8.96 z m 302.5,5.54 c -0.7,-1.31 -1.1,-2.38 -0.9,-2.38 0.1,0 11,-4.72 24,-10.49 13.1,-5.76 24.1,-10.48 24.3,-10.48 0.4,0 1.2,1.02 1.7,2.27 1,2.23 0.7,2.42 -23.1,12.87 -13.3,5.83 -24.3,10.6 -24.6,10.6 -0.2,0 -0.9,-1.08 -1.4,-2.39 z m -145,-40.93 c -13.7,-4.47 -20.4,-25.17 -13.4,-41.53 7.4,-16.96 33.2,-19.2 41.8,-3.62 2.7,4.78 2.4,5.82 -1.8,6.81 -2,0.47 -2.7,0 -4.3,-2.9 -3.9,-7.1 -11.8,-9.67 -20,-6.51 -7.4,2.8 -11,9.54 -11,20.53 0,10.57 3.3,17.05 9.9,20.1 9.6,4.32 20.1,0 23,-9.38 0.6,-2.17 2,-2.47 6,-1.33 l 2.3,0.63 -3.2,6.16 c -4.3,8.24 -9.4,11.57 -18.6,12.06 -3.9,0.21 -8.1,-0.19 -10.7,-1.02 z m -13.4,-90.13 v -28.6 h 2.3 2.4 v 28.6 28.59 h -2.4 -2.3 z m 19,0 v -28.6 h 2.4 2.4 v 28.6 28.59 h -2.4 -2.4 z m 18.1,0 v -28.6 h 2.9 2.8 v 28.6 28.59 h -2.8 -2.9 z m -24.1,-35.69 c -2,-0.7 -4.9,-2.24 -6.7,-3.39 -13,-8.96 -14.8,-33.39 -3.3,-44.95 5.3,-5.35 9.7,-6.98 18.4,-6.97 9.1,0 13.6,1.98 19,8.18 9,10.63 8.7,30.34 -0.6,40.53 -6.5,6.95 -17.8,9.78 -26.8,6.6 z m 16.5,-7.44 c 7.4,-3.76 11.2,-11.85 10.2,-22.37 -1,-9.43 -4.4,-14.96 -11.3,-17.87 -9.2,-3.81 -19.6,0.35 -23.8,9.5 -2.4,5.24 -2.4,16.68 0,22.03 1.8,4.1 7.1,8.97 10.8,10.04 4.5,1.29 9.9,0.77 14.1,-1.33 z" />
  </g>
  <text
     id="text11"
     y="337.22653"
     x="281.29053"
     style="font-style:normal;font-weight:normal;font-size:48px;line-height:1.25;font-family:sans-serif;letter-spacing:0px;word-spacing:0px;fill:#000000;fill-opacity:1;stroke:none"
     xml:space="preserve"><tspan
       style="font-size:64px"
       y="337.22653"
       x="281.29053"
       id="tspan9">Cr</tspan></text>
</svg>
