<?xml version="1.0" encoding="UTF-8" standalone="no"?>
<!-- Created with Inkscape (http://www.inkscape.org/) -->
<svg
   xmlns:svg="http://www.w3.org/2000/svg"
   xmlns="http://www.w3.org/2000/svg"
   version="1.0"
   width="103"
   height="174"
   viewBox="0 0 103 174"
   xml:space="preserve">
<title>ferrocene/molec_B3LYPp2p.xyz</title>
   <defs
     id="defs2406" /><g
     transform="matrix(1.25,0,0,-1.25,0,173.7)"
     id="g2412"><path
       d="M 7.68,28.08 L 7.68,28.08 L 41.76,3.6 L 41.76,7.68 L 41.76,11.52 L 7.68,28.08 L 7.68,28.08 z"
       id="path2414"
       style="fill:#000000;fill-opacity:1;fill-rule:evenodd;stroke:#000000;stroke-width:0.23999999;stroke-linecap:round;stroke-linejoin:miter;stroke-miterlimit:10;stroke-dasharray:none;stroke-opacity:1" /><path
       d="M 20.64,51.84 L 7.68,28.08"
       id="path2416"
       style="fill:none;stroke:#000000;stroke-width:1.67999995;stroke-linecap:round;stroke-linejoin:miter;stroke-miterlimit:10;stroke-dasharray:none;stroke-opacity:1" /><path
       d="M 74.88,27.6 L 74.88,27.6 L 41.76,11.52 L 41.76,7.68 L 41.76,3.6 L 74.88,27.6 L 74.88,27.6 z"
       id="path2418"
       style="fill:#000000;fill-opacity:1;fill-rule:evenodd;stroke:#000000;stroke-width:0.23999999;stroke-linecap:round;stroke-linejoin:miter;stroke-miterlimit:10;stroke-dasharray:none;stroke-opacity:1" /><path
       d="M 61.92,51.84 L 20.64,51.84"
       id="path2420"
       style="fill:none;stroke:#000000;stroke-width:1.67999995;stroke-linecap:round;stroke-linejoin:miter;stroke-miterlimit:10;stroke-dasharray:none;stroke-opacity:1" /><path
       d="M 61.92,51.84 L 74.88,27.6"
       id="path2422"
       style="fill:none;stroke:#000000;stroke-width:1.67999995;stroke-linecap:round;stroke-linejoin:miter;stroke-miterlimit:10;stroke-dasharray:none;stroke-opacity:1" /><path
       d="M 41.28,48 L 42,48 L 42.96,48 L 43.92,48 L 44.88,47.76 L 45.84,47.76 L 46.8,47.52 L 47.76,47.52 L 48.72,47.28 L 49.68,47.04 L 50.4,46.8 L 51.36,46.56 L 52.32,46.08 L 53.28,45.84 L 54.24,45.36 L 55.2,45.12 L 56.16,44.64 L 57.12,43.92 L 57.84,43.44 L 58.8,42.96 L 59.52,42.24 L 60,41.76 L 60.72,41.04 L 61.2,40.56 L 61.68,40.08 L 61.92,39.36 L 62.4,38.88 L 62.64,38.4 L 62.88,37.68 L 63.12,37.2 L 63.36,36.48 L 63.36,36 L 63.6,35.52 L 63.6,34.8 L 63.6,33.84 L 63.6,33.12 L 63.36,32.64 L 63.36,32.16 L 63.12,31.44 L 62.88,30.96 L 62.64,30.24 L 62.4,29.76 L 61.92,29.28 L 61.68,28.56 L 61.2,28.08 L 60.72,27.6 L 60,26.88 L 59.52,26.4 L 58.8,25.68 L 57.84,25.2 L 57.12,24.72 L 56.16,24 L 55.2,23.52 L 54.24,23.28 L 53.28,22.8 L 52.32,22.56 L 51.36,22.08 L 50.4,21.84 L 49.68,21.6 L 48.72,21.36 L 47.76,21.12 L 46.8,21.12 L 45.84,20.88 L 44.88,20.88 L 43.92,20.64 L 42.96,20.64 L 42,20.64 L 41.28,20.64 L 41.28,20.64 L 40.32,20.64 L 39.36,20.64 L 38.4,20.64 L 37.44,20.88 L 36.48,20.88 L 35.52,21.12 L 34.56,21.12 L 33.6,21.36 L 32.64,21.6 L 31.92,21.84 L 30.96,22.08 L 30,22.56 L 29.04,22.8 L 28.08,23.28 L 27.12,23.52 L 26.16,24 L 25.2,24.72 L 24.48,25.2 L 23.52,25.68 L 22.8,26.4 L 22.32,26.88 L 21.6,27.6 L 21.12,28.08 L 20.64,28.56 L 20.4,29.28 L 19.92,29.76 L 19.68,30.24 L 19.44,30.96 L 19.2,31.44 L 18.96,32.16 L 18.96,32.64 L 18.72,33.12 L 18.72,33.84 L 18.72,34.8 L 18.72,35.52 L 18.96,36 L 18.96,36.48 L 19.2,37.2 L 19.44,37.68 L 19.68,38.4 L 19.92,38.88 L 20.4,39.36 L 20.64,40.08 L 21.12,40.56 L 21.6,41.04 L 22.32,41.76 L 22.8,42.24 L 23.52,42.96 L 24.48,43.44 L 25.2,43.92 L 26.16,44.64 L 27.12,45.12 L 28.08,45.36 L 29.04,45.84 L 30,46.08 L 30.96,46.56 L 31.92,46.8 L 32.64,47.04 L 33.6,47.28 L 34.56,47.52 L 35.52,47.52 L 36.48,47.76 L 37.44,47.76 L 38.4,48 L 39.36,48 L 40.32,48 L 41.28,48 z"
       id="path2424"
       style="fill:none;stroke:#000000;stroke-width:1.67999995;stroke-linecap:round;stroke-linejoin:miter;stroke-miterlimit:10;stroke-dasharray:none;stroke-opacity:1" /><path
       d="M 1.96875,0 L 1.96875,-17.179688 L 13.558594,-17.179688 L 13.558594,-15.152344 L 4.2421875,-15.152344 L 4.2421875,-9.8320312 L 12.304688,-9.8320312 L 12.304688,-7.8046875 L 4.2421875,-7.8046875 L 4.2421875,0 L 1.96875,0 z M 24.765562,-4.0078125 L 26.94525,-3.7382812 C 26.601488,-2.4648413 25.96477,-1.476561 25.035093,-0.7734375 C 24.105396,-0.07031243 22.917898,0.28124972 21.472593,0.28125 C 19.652276,0.28124972 18.208918,-0.2792966 17.142515,-1.4003906 C 16.076108,-2.5214819 15.542905,-4.0937459 15.542906,-6.1171875 C 15.542905,-8.2109293 16.081967,-9.8359277 17.160093,-10.992188 C 18.238215,-12.148425 19.636651,-12.72655 21.355406,-12.726562 C 23.01946,-12.72655 24.378834,-12.160144 25.433531,-11.027344 C 26.488206,-9.8945214 27.01555,-8.3007729 27.015562,-6.2460938 C 27.01555,-6.1210876 27.011643,-5.9335878 27.003843,-5.6835938 L 17.722593,-5.6835938 C 17.800715,-4.3164019 18.187434,-3.269528 18.88275,-2.5429688 C 19.578057,-1.8164044 20.445244,-1.4531235 21.484312,-1.453125 C 22.257742,-1.4531235 22.917898,-1.6562483 23.464781,-2.0625 C 24.011646,-2.4687475 24.44524,-3.1171844 24.765562,-4.0078125 L 24.765562,-4.0078125 z M 17.839781,-7.4179688 L 24.789,-7.4179688 C 24.69524,-8.4648353 24.429615,-9.2499908 23.992125,-9.7734375 C 23.320241,-10.585927 22.449148,-10.992177 21.378843,-10.992188 C 20.410088,-10.992177 19.595635,-10.667958 18.935484,-10.019531 C 18.275324,-9.3710844 17.91009,-8.5038977 17.839781,-7.4179688 L 17.839781,-7.4179688 z"
       transform="matrix(1,0,0,-1,27.12,60.24)"
       id="text2426" /><path
       d="M 7.68,115.68 L 41.76,136.08"
       id="path2430"
       style="fill:none;stroke:#000000;stroke-width:1.67999995;stroke-linecap:round;stroke-linejoin:miter;stroke-miterlimit:10;stroke-dasharray:none;stroke-opacity:1" /><path
       d="M 7.68,115.68 L 7.68,115.68 L 18.48,88.56 L 20.64,91.92 L 22.32,95.04 L 7.68,115.68 L 7.68,115.68 z"
       id="path2432"
       style="fill:#000000;fill-opacity:1;fill-rule:evenodd;stroke:#000000;stroke-width:0.23999999;stroke-linecap:round;stroke-linejoin:miter;stroke-miterlimit:10;stroke-dasharray:none;stroke-opacity:1" /><path
       d="M 74.88,116.16 L 41.76,136.08"
       id="path2434"
       style="fill:none;stroke:#000000;stroke-width:1.67999995;stroke-linecap:round;stroke-linejoin:miter;stroke-miterlimit:10;stroke-dasharray:none;stroke-opacity:1" /><path
       d="M 20.64,91.92 L 18.48,88.56 L 63.84,88.8 L 61.92,91.92 L 60,95.04 L 22.32,95.04 L 20.64,91.92 z"
       id="path2436"
       style="fill:#000000;fill-opacity:1;fill-rule:evenodd;stroke:#000000;stroke-width:0.23999999;stroke-linecap:round;stroke-linejoin:miter;stroke-miterlimit:10;stroke-dasharray:none;stroke-opacity:1" /><path
       d="M 74.88,116.16 L 74.88,116.16 L 60,95.04 L 61.92,91.92 L 63.84,88.8 L 74.88,116.16 L 74.88,116.16 z"
       id="path2438"
       style="fill:#000000;fill-opacity:1;fill-rule:evenodd;stroke:#000000;stroke-width:0.23999999;stroke-linecap:round;stroke-linejoin:miter;stroke-miterlimit:10;stroke-dasharray:none;stroke-opacity:1" /><path
       d="M 41.52,125.76 L 42.24,125.76 L 43.2,125.76 L 44.16,125.76 L 45.12,125.52 L 46.08,125.52 L 47.04,125.28 L 48,125.28 L 48.96,125.04 L 49.92,124.8 L 50.64,124.56 L 51.6,124.32 L 52.56,123.84 L 53.52,123.6 L 54.48,123.12 L 55.44,122.88 L 56.4,122.4 L 57.36,121.68 L 58.08,121.2 L 59.04,120.72 L 59.76,120 L 60.24,119.52 L 60.96,118.8 L 61.44,118.32 L 61.92,117.84 L 62.16,117.12 L 62.64,116.64 L 62.88,116.16 L 63.12,115.44 L 63.36,114.96 L 63.6,114.24 L 63.6,113.76 L 63.84,113.28 L 63.84,112.56 L 63.84,111.6 L 63.84,110.88 L 63.6,110.4 L 63.6,109.92 L 63.36,109.2 L 63.12,108.72 L 62.88,108 L 62.64,107.52 L 62.16,107.04 L 61.92,106.32 L 61.44,105.84 L 60.96,105.36 L 60.24,104.64 L 59.76,104.16 L 59.04,103.44 L 58.08,102.96 L 57.36,102.48 L 56.4,101.76 L 55.44,101.28 L 54.48,101.04 L 53.52,100.56 L 52.56,100.32 L 51.6,99.84 L 50.64,99.6 L 49.92,99.36 L 48.96,99.12 L 48,98.88 L 47.04,98.88 L 46.08,98.64 L 45.12,98.64 L 44.16,98.4 L 43.2,98.4 L 42.24,98.4 L 41.52,98.4 L 41.52,98.4 L 40.56,98.4 L 39.6,98.4 L 38.64,98.4 L 37.68,98.64 L 36.72,98.64 L 35.76,98.88 L 34.8,98.88 L 33.84,99.12 L 32.88,99.36 L 32.16,99.6 L 31.2,99.84 L 30.24,100.32 L 29.28,100.56 L 28.32,101.04 L 27.36,101.28 L 26.4,101.76 L 25.44,102.48 L 24.72,102.96 L 23.76,103.44 L 23.04,104.16 L 22.56,104.64 L 21.84,105.36 L 21.36,105.84 L 20.88,106.32 L 20.64,107.04 L 20.16,107.52 L 19.92,108 L 19.68,108.72 L 19.44,109.2 L 19.2,109.92 L 19.2,110.4 L 18.96,110.88 L 18.96,111.6 L 18.96,112.56 L 18.96,113.28 L 19.2,113.76 L 19.2,114.24 L 19.44,114.96 L 19.68,115.44 L 19.92,116.16 L 20.16,116.64 L 20.64,117.12 L 20.88,117.84 L 21.36,118.32 L 21.84,118.8 L 22.56,119.52 L 23.04,120 L 23.76,120.72 L 24.72,121.2 L 25.44,121.68 L 26.4,122.4 L 27.36,122.88 L 28.32,123.12 L 29.28,123.6 L 30.24,123.84 L 31.2,124.32 L 32.16,124.56 L 32.88,124.8 L 33.84,125.04 L 34.8,125.28 L 35.76,125.28 L 36.72,125.52 L 37.68,125.52 L 38.64,125.76 L 39.6,125.76 L 40.56,125.76 L 41.52,125.76 z"
       id="path2440"
       style="fill:none;stroke:#000000;stroke-width:1.67999995;stroke-linecap:round;stroke-linejoin:miter;stroke-miterlimit:10;stroke-dasharray:none;stroke-opacity:1" /><path
       d="M 41.28,112.08 L 41.28,80.16"
       id="path2442"
       style="fill:none;stroke:#000000;stroke-width:1.67999995;stroke-linecap:round;stroke-linejoin:miter;stroke-miterlimit:10;stroke-dasharray:5.04, 3.36;stroke-dashoffset:0;stroke-opacity:1" /><path
       d="M 41.28,59.28 L 41.28,33.84"
       id="path2444"
       style="fill:none;stroke:#000000;stroke-width:1.67999995;stroke-linecap:round;stroke-linejoin:miter;stroke-miterlimit:10;stroke-dasharray:5.04, 3.36;stroke-dashoffset:0;stroke-opacity:1" /></g>
</svg>
