<?xml version="1.0" encoding="UTF-8" standalone="no"?>
<svg
   xmlns:dc="http://purl.org/dc/elements/1.1/"
   xmlns:cc="http://creativecommons.org/ns#"
   xmlns:rdf="http://www.w3.org/1999/02/22-rdf-syntax-ns#"
   xmlns:svg="http://www.w3.org/2000/svg"
   xmlns="http://www.w3.org/2000/svg"
   viewBox="0 0 845 794"
   height="794"
   width="845"
   id="svg2"
   version="1.1">
<title>H8Si8O12/molec_B3LYPp2p.xyz</title>
  <path
     id="path12"
     d="m 559.46837,731.73749 c -31.05569,-31.51696 -30.97338,-31.42407 -29.46103,-33.24633 1.19206,-1.43635 3.36651,0.39432 19.23596,16.19472 9.84058,9.79776 20.63141,20.87817 23.97962,24.62312 5.27582,5.90096 5.89716,6.99949 4.65916,8.23749 -1.23799,1.238 -3.6936,-0.87026 -18.41371,-15.809 z M 153.11208,691.50523 c 13.12109,-15.39712 24.24606,-28.12461 24.72214,-28.2833 0.47609,-0.1587 1.36792,0.31671 1.98186,1.05647 0.87637,1.05595 -3.98042,7.33524 -22.59991,29.21911 -36.66577,43.89168 -24.45228,21.91458 -4.10409,-1.99228 z m 193.31206,11.59966 C 341.50853,700.87231 339,696.27539 339,689.5 c 0,-9.31458 4.8278,-14.5 13.5,-14.5 8.85207,0 13.5,5.17576 13.5,15.0331 0,6.76379 -2.6817,11.22226 -8.03944,13.366 -5.06005,2.02463 -6.51244,1.98759 -11.53642,-0.29421 z m 13.77199,-5.35573 c 3.74952,-4.95064 3.11837,-12.63618 -1.43706,-17.49916 -3.27203,-3.49294 -9.54624,-3.12536 -13.28626,0.77838 -2.44941,2.55663 -2.89962,3.84181 -2.89009,8.25 0.007,3.35736 0.66071,6.20397 1.83025,7.97308 3.32705,5.03268 12.13803,5.31052 15.78316,0.4977 z m 138.72695,-5.67224 c -3.2153,-3.2153 -3.7319,-5.55257 -1.42308,-6.43855 0.825,-0.31658 1.5,-0.11927 1.5,0.43847 0,0.55774 1.10455,2.11861 2.45455,3.46861 4.58925,4.58926 14.13312,2.52538 13.34867,-2.88668 -0.34451,-2.37683 -3.35772,-4.16632 -9.60597,-5.70481 -5.35417,-1.31835 -8.19725,-4.06353 -8.19725,-7.915 0,-5.79047 7.36443,-9.39391 14.43172,-7.06149 3.53052,1.16517 6.56828,4.28468 6.56828,6.74504 0,2.13101 -3.45787,1.42838 -4.51287,-0.917 -1.81851,-4.04274 -10.53251,-4.45775 -12.59714,-0.59995 -1.56261,2.91977 1.2972,5.46911 7.75683,6.91471 9.95611,2.22808 13.15323,8.23353 7.4301,13.95665 C 513.5355,694.61835 512.41565,695 507.5,695 c -4.91565,0 -6.0355,-0.38165 -8.57692,-2.92308 z M 524,684.5 c 0,-8.66667 0.2619,-10.5 1.5,-10.5 1.2381,0 1.5,1.83333 1.5,10.5 0,8.66667 -0.2619,10.5 -1.5,10.5 -1.2381,0 -1.5,-1.83333 -1.5,-10.5 z m -147.68964,6.8664 c -0.31676,-0.82546 -0.17867,-1.85408 0.30686,-2.28582 0.48553,-0.43174 23.83278,-2.66596 51.88278,-4.96492 28.05,-2.29897 52.72481,-4.43633 54.8329,-4.7497 3.57643,-0.53164 3.81063,-0.41322 3.5,1.76974 l -0.3329,2.33951 -49.5,4.16863 c -27.225,2.29275 -51.88809,4.40596 -54.80686,4.69601 -4.14216,0.41164 -5.43326,0.19799 -5.88278,-0.97345 z M 272,670.77788 c -29.975,-8.26652 -54.62217,-15.13297 -54.77148,-15.25878 -0.14932,-0.1258 0.0757,-1.12418 0.5,-2.21863 0.73617,-1.89882 3.26575,-1.30596 55.27148,12.95407 29.975,8.21918 54.85225,15.27405 55.28278,15.67749 0.85479,0.80101 -0.0997,4.12727 -1.13977,3.97193 C 326.78936,685.85114 301.975,679.0444 272,670.77788 Z M 524,668 c 0,-1.11111 0.66667,-2 1.5,-2 0.83333,0 1.5,0.88889 1.5,2 0,1.11111 -0.66667,2 -1.5,2 -0.83333,0 -1.5,-0.88889 -1.5,-2 z m 14.57421,-5.66722 c -0.35188,-0.91697 -0.22747,-2.07952 0.27645,-2.58344 0.50393,-0.50393 16.15618,-12.07976 34.78279,-25.72407 29.75674,-21.79733 34.01983,-24.61362 35.12968,-23.20746 1.04045,1.31822 0.9523,1.89071 -0.5,3.24724 C 605.99595,616.18273 540.33735,664 539.69672,664 c -0.26551,0 -0.77064,-0.75025 -1.12251,-1.66722 z m -356.19127,-2.8594 C 177.69512,657.0755 175.26952,651 179,651 c 1.1,0 2,0.60526 2,1.34501 0,4.93108 10.65635,7.03255 14.09948,2.78047 2.78805,-3.4431 1.17575,-5.25639 -7.2248,-8.12548 -8.12702,-2.77567 -10.70276,-5.56452 -9.51396,-10.30111 1.27139,-5.06559 10.46126,-7.39367 16.61807,-4.20986 3.30196,1.70751 4.91891,5.33813 2.92597,6.56983 -1.61154,0.99599 -2.90476,0.29136 -2.90476,-1.58269 0,-3.17124 -7.96252,-4.6865 -11.40384,-2.17014 -1.08318,0.79204 -1.65034,2.24311 -1.44113,3.68714 0.28715,1.98201 1.4756,2.72687 7.09058,4.44397 3.71009,1.13457 7.64759,2.84596 8.75,3.80307 2.69594,2.34062 2.55853,7.00404 -0.30445,10.33245 -2.926,3.40168 -10.52848,4.34563 -15.30822,1.90072 z M 205,649.5 c 0,-9.83333 0.12698,-10.5 2,-10.5 1.87302,0 2,0.66667 2,10.5 0,9.83333 -0.12698,10.5 -2,10.5 -1.87302,0 -2,-0.66667 -2,-10.5 z m 314.27244,5.68859 c -0.91474,-0.5804 4.50054,-20.98464 21.25,-80.068 C 552.8851,531.51158 563,495.6444 563,495.41574 563,495.18708 563.9,495 565,495 c 1.25045,0 1.98785,0.65586 1.96757,1.75 -0.0591,3.1912 -44.60429,158.62922 -45.54478,158.92615 -0.50753,0.16023 -1.47519,-0.0592 -2.15035,-0.48756 z M 205,633 c 0,-1.33333 0.66667,-2 2,-2 1.33333,0 2,0.66667 2,2 0,1.33333 -0.66667,2 -2,2 -1.33333,0 -2,-0.66667 -2,-2 z m -26.65325,-15.24796 c -0.39451,-0.63833 -10.74771,-23.00618 -23.0071,-49.70632 -20.12694,-43.83513 -22.12764,-48.66738 -20.61848,-49.79947 0.91924,-0.68956 1.96548,-0.91456 2.325,-0.5 1.1489,1.32483 44.96523,97.70713 44.95941,98.89676 -0.008,1.63869 -2.80711,2.48713 -3.65883,1.10903 z m 22.75692,-1.6668 c -1.15254,-0.72978 -0.13262,-5.94426 5.84184,-29.86706 6.56882,-26.30274 7.41462,-28.93676 9.14633,-28.48391 1.04949,0.27444 1.90816,0.9021 1.90816,1.3948 0,2.18884 -14.31542,57.86931 -14.87465,57.85562 -0.34394,-0.008 -1.2537,-0.41318 -2.02168,-0.89945 z m 420.01782,-6.79515 c -4.84111,-2.3849 -7.11326,-6.66 -7.11775,-13.39221 -0.006,-9.26399 5.08102,-14.8684 13.49626,-14.8684 8.41524,0 13.50244,5.60441 13.49626,14.8684 -0.005,6.87984 -2.603,11.62203 -7.48604,13.6623 -4.47843,1.8712 -8.20712,1.78992 -12.38873,-0.27009 z m 11.57769,-3.24822 c 6.26798,-3.82182 6.63574,-15.27346 0.64189,-19.98822 -8.22067,-6.46638 -18.34837,2.77808 -15.32879,13.99196 1.1469,4.25924 5.54956,7.94691 9.48772,7.94691 1.1,0 3.43963,-0.87779 5.19918,-1.95065 z m 10.03974,-34.48826 c -1.61705,-1.18477 -0.36432,-3.73418 15.31729,-31.17195 9.3931,-16.43491 17.5013,-30.31237 18.01822,-30.8388 0.59642,-0.6074 1.44967,-0.42469 2.33503,0.5 1.20333,1.25677 -0.93505,5.5137 -15.55068,30.95714 -9.32023,16.225 -17.26378,30.02738 -17.65233,30.67196 -0.53263,0.88359 -1.13976,0.85447 -2.46753,-0.11835 z M 213.8728,546.31629 c -10.57232,-6.56142 -7.42783,-25.62073 4.59928,-27.87703 5.45782,-1.02389 12.23617,2.00131 14.66522,6.54514 3.99935,7.48125 1.40059,18.41289 -5.16732,21.73629 -3.4609,1.75124 -10.97095,1.5358 -14.09718,-0.4044 z m 14.20412,-4.23937 C 230.60686,539.54699 231,538.4059 231,533.5927 c 0,-4.71176 -0.43886,-6.05231 -2.8733,-8.77692 -7.37095,-8.24953 -18.91464,-0.15987 -16.69039,11.69639 1.55846,8.30731 10.8057,11.39967 16.64061,5.56475 z M 755.25,509.70409 c -21.5875,-6.08174 -39.24311,-11.31565 -39.23469,-11.6309 0.008,-0.31525 0.42319,-1.21774 0.92171,-2.00552 0.75501,-1.19312 7.5203,0.39347 40.50838,9.5 35.38442,9.76805 39.57285,11.13699 39.3283,12.854 -0.15054,1.05692 -0.7237,2.01583 -1.2737,2.1309 -0.55,0.11508 -18.6625,-4.76674 -40.25,-10.84848 z m -514.85638,3.87928 c -0.4146,-1.08043 4.79682,-7.36832 16.84453,-20.32391 9.59467,-10.3177 20.06271,-21.59686 23.2623,-25.0648 5.24059,-5.6801 5.97029,-6.15249 7.35889,-4.76389 1.3886,1.3886 1.29118,1.81552 -0.98246,4.30534 -20.38025,22.318 -43.6035,46.83421 -44.60444,47.0878 -0.70317,0.17815 -1.54864,-0.3801 -1.87882,-1.24054 z M 118,509.24845 c -4.90032,-2.44799 -8.32,-9.25872 -7.57215,-15.08091 1.09238,-8.50444 5.95786,-13.17048 13.72644,-13.1638 8.48545,0.007 13.84571,5.90338 13.84571,15.22974 0,11.20053 -10.26299,17.87915 -20,13.01497 z M 128.85497,506.575 C 132.41845,504.73225 134,501.13606 134,494.87602 c 0,-4.22599 -0.46717,-5.49703 -2.92308,-7.95294 -6.34641,-6.34642 -15.92956,-1.98035 -16.76106,7.63631 -0.85015,9.83225 6.69808,16.07036 14.53911,12.01561 z M 465,509.24845 c -4.90032,-2.44799 -8.32,-9.25872 -7.57215,-15.08091 1.09238,-8.50444 5.95786,-13.17048 13.72644,-13.1638 8.48545,0.007 13.84571,5.90338 13.84571,15.22974 0,11.20053 -10.26299,17.87915 -20,13.01497 z M 475.85497,506.575 C 479.41845,504.73225 481,501.13606 481,494.87602 c 0,-4.22599 -0.46717,-5.49703 -2.92308,-7.95294 -6.34641,-6.34642 -15.92956,-1.98035 -16.76106,7.63631 -0.85015,9.83225 6.69808,16.07036 14.53911,12.01561 z m 206.97244,0.7454 C 679.58094,506.78798 675,502.42395 675,499.86364 c 0,-2.7958 2.34089,-2.24641 4.84188,1.13636 1.82717,2.47138 2.92913,3 6.2538,3 5.23362,0 7.90432,-1.49097 7.90432,-4.41274 0,-3.07454 -1.30695,-4.00573 -8.5,-6.05619 -7.42316,-2.11605 -9.5,-3.88978 -9.5,-8.11348 0,-4.76036 3.76091,-7.41759 10.4985,-7.41759 4.31615,0 5.68892,0.46015 7.86514,2.63636 C 697.5008,483.77352 697.76495,486 695,486 c -1.1,0 -2,-0.41786 -2,-0.92857 0,-3.90456 -9.31035,-5.59595 -12.34501,-2.24269 -0.91025,1.00581 -1.65499,2.09867 -1.65499,2.42857 0,1.52098 3.47053,3.78696 7.295,4.76304 7.38321,1.88435 9.50499,3.08257 10.74053,6.06544 1.41073,3.40579 0.0886,7.73109 -2.94167,9.62352 -2.27735,1.42223 -7.69455,2.19688 -11.26645,1.61109 z M 703,496.5 c 0,-9.83333 0.12698,-10.5 2,-10.5 1.87302,0 2,0.66667 2,10.5 0,9.83333 -0.12698,10.5 -2,10.5 -1.87302,0 -2,-0.66667 -2,-10.5 z m -208,0.80928 c 0,-1.82876 0.8687,-2.06516 9.75,-2.65328 5.3625,-0.35511 18.82037,-0.64798 29.90638,-0.65083 19.66529,-0.005 20.14364,0.0436 19.63337,1.99483 -0.47777,1.827 -1.36402,2 -10.24557,2 -5.34741,0 -18.56993,0.29631 -29.38337,0.65846 C 495.42308,499.30275 495,499.27372 495,497.30928 Z M 576.01531,496.25 c 0.0595,-2.91352 2.31916,-3.11143 42.49708,-3.72193 22.54319,-0.34255 42.45011,-0.84689 44.23761,-1.12075 2.89706,-0.44387 3.25,-0.23906 3.25,1.886 v 2.38394 l -30.75,0.65961 c -40.30075,0.86449 -59.25354,0.83669 -59.23469,-0.0869 z M 391.5,475.33389 c -30.25,-8.98173 -57.32029,-17.0065 -60.15621,-17.83282 -4.35439,-1.26878 -5.0749,-1.81331 -4.63336,-3.50174 0.28756,-1.09963 0.79963,-1.99933 1.13793,-1.99933 0.72121,0 119.52203,35.15277 119.92312,35.48486 0.14932,0.12362 -0.0757,1.11458 -0.5,2.20212 -0.73144,1.87471 -3.62627,1.12971 -55.77148,-14.35309 z m 173.5,8.91456 c -4.90032,-2.44799 -8.32,-9.25872 -7.57215,-15.08091 1.09238,-8.50444 5.95786,-13.17048 13.72644,-13.1638 8.48545,0.007 13.84571,5.90338 13.84571,15.22974 0,11.20053 -10.26299,17.87915 -20,13.01497 z M 575.85497,481.575 C 579.41845,479.73225 581,476.13606 581,469.87602 c 0,-4.22599 -0.46717,-5.49703 -2.92308,-7.95294 -6.34641,-6.34642 -15.92956,-1.98035 -16.76106,7.63631 -0.85015,9.83225 6.69808,16.07036 14.53911,12.01561 z M 703,480 c 0,-1.33333 0.66667,-2 2,-2 1.33333,0 2,0.66667 2,2 0,1.33333 -0.66667,2 -2,2 -1.33333,0 -2,-0.66667 -2,-2 z M 123.46765,456.75 c 0.94498,-17.36707 4.53072,-105.5946 4.53158,-111.5 7.3e-4,-4.97633 0.13524,-5.25 2.58036,-5.25 2.55825,0 2.5749,0.0517 2.01137,6.25 -0.31253,3.4375 -1.50599,31.225 -2.65213,61.75 -1.14614,30.525 -2.28483,56.5125 -2.53042,57.75 -0.2893,1.45778 -1.16944,2.25 -2.4997,2.25 -1.98553,0 -2.03302,-0.37076 -1.44106,-11.25 z m 562.05634,4 c 0.26715,-2.3375 1.61878,-23.6 3.0036,-47.25 3.04289,-51.96614 2.9928,-51.5 5.53368,-51.5 1.0663,0 1.93873,0.59284 1.93873,1.31743 0,0.72459 -1.35,22.63174 -3,48.68257 -1.65,26.05083 -3,48.63298 -3,50.18257 0,2.3328 -0.42674,2.81743 -2.48087,2.81743 -2.3282,0 -2.45098,-0.26155 -1.99514,-4.25 z M 292.5,460.10901 c -2.57899,-1.12567 -5.081,-4.01035 -5.94911,-6.85901 -0.55733,-1.82889 -0.29873,-2.25 1.38172,-2.25 1.13707,0 2.06739,0.60526 2.06739,1.34501 0,3.60038 6.93397,6.27117 11.84061,4.56071 6.80299,-2.37154 4.48477,-7.91394 -4.17328,-9.97746 -8.92137,-2.12628 -12.04665,-5.80688 -9.56173,-11.26069 2.36911,-5.19962 13.09251,-6.56037 17.43985,-2.21302 2.78787,2.78786 3.15544,5.06252 0.95455,5.90708 -0.825,0.31658 -1.5,0.13972 -1.5,-0.39301 0,-0.53274 -0.9,-1.86862 -2,-2.96862 -3.72772,-3.72772 -12.68849,-1.81355 -11.85167,2.53172 0.42564,2.21018 3.60086,4.02377 9.65442,5.51432 5.54265,1.36475 8.19725,4.04604 8.19725,8.27965 0,4.76351 -3.62935,7.86683 -9.71737,8.30894 -2.63045,0.19103 -5.68263,-0.0455 -6.78263,-0.52562 z M 315,449.5 c 0,-8.66667 0.2619,-10.5 1.5,-10.5 1.2381,0 1.5,1.83333 1.5,10.5 0,8.66667 -0.2619,10.5 -1.5,10.5 -1.2381,0 -1.5,-1.83333 -1.5,-10.5 z m 212.75243,-46.71698 c -23.56395,-38.95361 -26.57215,-44.39187 -25.27381,-45.69021 0.81057,-0.81057 1.70235,-1.24517 1.98174,-0.96579 C 505.51209,357.17875 558,444.3635 558,445.05874 c 0,0.56309 -2.36779,1.9425 -3.33179,1.941 -0.0925,-1.5e-4 -12.20462,-19.89767 -26.91578,-44.21672 z m -286.54428,26.40396 c -29.16894,-9.58371 -32.26133,-10.80692 -31.97626,-12.64837 0.17358,-1.12124 0.75491,-1.97588 1.29185,-1.8992 0.53694,0.0767 15.67132,4.91538 33.63194,10.75268 29.77612,9.6774 32.60962,10.78939 32.13337,12.61059 -0.28727,1.09853 -1.03233,1.95159 -1.65568,1.89569 -0.62335,-0.0559 -15.6647,-4.87602 -33.42522,-10.71139 z M 315,433 c 0,-1.11111 0.66667,-2 1.5,-2 0.83333,0 1.5,0.88889 1.5,2 0,1.11111 -0.66667,2 -1.5,2 -0.83333,0 -1.5,-0.88889 -1.5,-2 z m -14,-14.48837 c 0,-0.88045 -14.97125,-88.95352 -15.51699,-91.28359 -0.56642,-2.41833 1.90745,-4.25832 3.51026,-2.61082 0.80776,0.83027 16.02669,88.86914 16.01306,92.63278 -0.004,1.08122 -0.77065,1.75 -2.00633,1.75 -1.1,0 -2,-0.21977 -2,-0.48837 z m 264.5,-66.12605 c -12.1,-2.96979 -28.8625,-7.04553 -37.25,-9.05721 -10.44419,-2.50495 -15.25,-4.08831 -15.25,-5.02436 0,-0.75173 0.64843,-1.61561 1.44096,-1.91973 0.79253,-0.30412 18.48485,3.535 39.31625,8.53139 20.83141,4.99638 38.14084,9.08433 38.46542,9.08433 0.32457,0 0.35478,0.9 0.0671,2 -0.33044,1.26361 -1.30851,1.96046 -2.65638,1.8926 C 588.46002,357.83353 577.6,355.35537 565.5,352.38558 Z M 481.82741,351.3204 C 478.58094,350.78798 474,346.42395 474,343.86364 c 0,-2.7958 2.34089,-2.24641 4.84188,1.13636 1.82717,2.47138 2.92913,3 6.2538,3 5.23362,0 7.90432,-1.49097 7.90432,-4.41274 0,-3.07454 -1.30695,-4.00573 -8.5,-6.05619 -7.42316,-2.11605 -9.5,-3.88978 -9.5,-8.11348 0,-4.76036 3.76091,-7.41759 10.4985,-7.41759 4.31615,0 5.68892,0.46015 7.86514,2.63636 C 496.5008,327.77352 496.76495,330 494,330 c -1.1,0 -2,-0.41786 -2,-0.92857 0,-3.90456 -9.31035,-5.59595 -12.34501,-2.24269 -0.91025,1.00581 -1.65499,2.09867 -1.65499,2.42857 0,1.52098 3.47053,3.78696 7.295,4.76304 7.38321,1.88435 9.50499,3.08257 10.74053,6.06544 1.41073,3.40579 0.0886,7.73109 -2.94167,9.62352 -2.27735,1.42223 -7.69455,2.19688 -11.26645,1.61109 z m 206.79189,-0.32361 c -10.04885,-3.11763 -12.94949,-18.17674 -4.95369,-25.71775 3.06442,-2.89012 4.13204,-3.27904 9.00122,-3.27904 6.5416,0 10.81418,2.51363 12.94631,7.61654 5.17492,12.38534 -4.94562,25.11818 -16.99384,21.38025 z m 10.17533,-4.65321 c 5.89067,-3.71768 5.40641,-17.02488 -0.73924,-20.31394 -3.37079,-1.80399 -8.74053,-1.20454 -11.6533,1.30092 -2.19041,1.88411 -2.78388,3.36873 -3.09804,7.75 -0.47441,6.61619 1.02705,9.81985 5.69939,12.1608 3.59099,1.79917 5.8454,1.59246 9.79119,-0.89778 z M 502,340.5 c 0,-9.83333 0.12698,-10.5 2,-10.5 1.87302,0 2,0.66667 2,10.5 0,9.83333 -0.12698,10.5 -2,10.5 -1.87302,0 -2,-0.66667 -2,-10.5 z m -89,-12.15113 c -28.325,-6.20674 -53.8625,-11.78126 -56.75,-12.38782 -4.13789,-0.86923 -5.25,-1.51149 -5.25,-3.03195 0,-1.15363 0.68762,-1.9291 1.71056,-1.9291 1.97074,0 112.58178,24.04655 113.19653,24.60863 0.2239,0.20472 -10e-4,1.19414 -0.5,2.19871 -0.85076,1.71308 -4.10503,1.12575 -52.40709,-9.45847 z m -289.61706,7.12451 C 118.69512,333.0755 116.26952,327 120,327 c 1.1,0 2,0.60526 2,1.34501 0,4.93108 10.65635,7.03255 14.09948,2.78047 2.78805,-3.4431 1.17575,-5.25639 -7.2248,-8.12548 -8.12702,-2.77567 -10.70276,-5.56452 -9.51396,-10.30111 1.27139,-5.06559 10.46126,-7.39367 16.61807,-4.20986 3.30196,1.70751 4.91891,5.33813 2.92597,6.56983 -1.61154,0.99599 -2.90476,0.29136 -2.90476,-1.58269 0,-3.17124 -7.96252,-4.6865 -11.40384,-2.17014 -1.08318,0.79204 -1.65034,2.24311 -1.44113,3.68714 0.28715,1.98201 1.4756,2.72687 7.09058,4.44397 3.71009,1.13457 7.64759,2.84596 8.75,3.80307 2.69594,2.34062 2.55853,7.00404 -0.30445,10.33245 -2.926,3.40168 -10.52848,4.34563 -15.30822,1.90072 z M 147,325.5 c 0,-8.66667 0.2619,-10.5 1.5,-10.5 1.2381,0 1.5,1.83333 1.5,10.5 0,8.66667 -0.2619,10.5 -1.5,10.5 -1.2381,0 -1.5,-1.83333 -1.5,-10.5 z m 174.42414,-0.39511 C 316.50853,322.87231 314,318.27539 314,311.5 c 0,-9.31458 4.8278,-14.5 13.5,-14.5 8.85207,0 13.5,5.17576 13.5,15.0331 0,6.76379 -2.6817,11.22226 -8.03944,13.366 -5.06005,2.02463 -6.51244,1.98759 -11.53642,-0.29421 z m 13.77199,-5.35573 c 3.74952,-4.95064 3.11837,-12.63618 -1.43706,-17.49916 -3.27203,-3.49294 -9.54624,-3.12536 -13.28626,0.77838 -2.44941,2.55663 -2.89962,3.84181 -2.89009,8.25 0.007,3.35736 0.66071,6.20397 1.83025,7.97308 3.32705,5.03268 12.13803,5.31052 15.78316,0.4977 z M 502,324 c 0,-1.33333 0.66667,-2 2,-2 1.33333,0 2,0.66667 2,2 0,1.33333 -0.66667,2 -2,2 -1.33333,0 -2,-0.66667 -2,-2 z m -344,-0.87946 c 0,-1.3579 0.78283,-2.24095 2.25,-2.53804 1.2375,-0.25058 32.625,-2.51728 69.75,-5.0371 37.125,-2.51982 68.85,-4.68587 70.5,-4.81345 2.43567,-0.18832 3.06011,0.1913 3.31955,2.01805 0.2665,1.87644 -0.14857,2.25042 -2.5,2.25251 -3.32156,0.003 -126.70549,8.64917 -136.56955,9.57021 -6.37418,0.59517 -6.75,0.51432 -6.75,-1.45218 z m 357.10115,-7.49866 c -0.99334,-1.19691 2.10476,-4.36712 18.06055,-18.48094 14.66728,-12.97406 19.56701,-16.78105 20.54894,-15.96613 0.70915,0.58855 1.28936,1.42945 1.28936,1.86868 0,0.79723 -36.4099,33.20298 -37.90881,33.73981 -0.43506,0.15582 -1.33058,-0.36682 -1.99004,-1.16142 z M 76.5,306.44423 C 61.1,302.38236 48.3875,299.04574 48.25,299.02951 47.365651,298.92513 48.220786,295 49.127874,295 c 1.524795,0 59.162126,14.95666 59.696456,15.491 0.9754,0.9754 -0.90144,3.5023 -2.54295,3.42372 C 105.30162,313.86782 91.9,310.5061 76.5,306.44423 Z M 147,309 c 0,-1.11111 0.66667,-2 1.5,-2 0.83333,0 1.5,0.88889 1.5,2 0,1.11111 -0.66667,2 -1.5,2 -0.83333,0 -1.5,-0.88889 -1.5,-2 z m 538.45923,-1.32762 c -0.23013,-0.64481 -5.063,-23.07455 -10.7397,-49.84387 -10.1745,-47.97934 -10.29044,-48.67738 -8.15333,-49.08592 2.09065,-0.39965 2.53158,1.30003 12.36696,47.67149 5.60947,26.44726 10.4069,48.81764 10.66098,49.71196 0.53967,1.89963 -3.47321,3.40034 -4.13491,1.54634 z M 280.3592,296.5 c -0.53427,-3.575 -0.64546,-6.5 -0.24709,-6.5 0.39837,0 1.38098,-0.25199 2.18357,-0.55997 1.10471,-0.42391 1.62793,0.60867 2.15355,4.25 0.38186,2.64548 0.93579,5.82247 1.23094,7.05997 0.44501,1.8658 0.11947,2.25 -1.90646,2.25 -2.24059,0 -2.52362,-0.53878 -3.41451,-6.5 z m -136.65077,-5.2654 c -1.15174,-0.25538 -1.59897,-0.9932 -1.25226,-2.06593 1.92748,-5.96369 24.33271,-57.5952 25.09815,-57.83719 0.52012,-0.16443 1.50074,0.0532 2.17915,0.48358 0.90511,0.57422 -2.03664,8.54758 -11.05019,29.95061 -6.75602,16.04243 -12.48609,29.32514 -12.73348,29.51713 -0.24739,0.19198 -1.25601,0.17029 -2.24137,-0.0482 z M 274.42414,278.10489 C 269.50853,275.87231 267,271.27539 267,264.5 c 0,-9.31458 4.8278,-14.5 13.5,-14.5 8.85207,0 13.5,5.17576 13.5,15.0331 0,6.76379 -2.6817,11.22226 -8.03944,13.366 -5.06005,2.02463 -6.51244,1.98759 -11.53642,-0.29421 z m 13.77199,-5.35573 c 3.74952,-4.95064 3.11837,-12.63618 -1.43706,-17.49916 -3.27203,-3.49294 -9.54624,-3.12536 -13.28626,0.77838 -2.44941,2.55663 -2.89962,3.84181 -2.89009,8.25 0.007,3.35736 0.66071,6.20397 1.83025,7.97308 3.32705,5.03268 12.13803,5.31052 15.78316,0.4977 z m 279.09028,6.57942 c -5.94902,-1.23124 -11.2082,-10.7808 -9.72705,-17.66226 C 559.33474,253.4179 563.51138,250 571.81548,250 c 8.17747,0 13.18788,5.58804 13.18078,14.70034 -0.004,5.2814 -2.43206,10.24475 -6.19852,12.67135 -2.6109,1.68211 -8.22646,2.63674 -11.51133,1.95689 z M 578.25,272.88782 c 2.32036,-2.46327 2.75,-3.78821 2.75,-8.48052 0,-4.8132 -0.39314,-5.95429 -2.92308,-8.48422 -5.0721,-5.07211 -13.00071,-3.74306 -15.66158,2.62529 -2.94999,7.06033 -0.79217,14.53164 4.89937,16.96372 4.16876,1.78137 7.5495,0.97006 10.93529,-2.62427 z m 14.71498,-24.43001 c -1.62643,-1.95973 -3.38757,-0.29686 26.37088,-24.89925 22.00645,-18.19353 23.93923,-19.566 25.18268,-17.88227 0.74075,1.00304 1.03961,2.09711 0.66414,2.43127 -0.97617,0.86875 -47.40359,39.13826 -49.32116,40.65477 -1.30593,1.0328 -1.83261,0.97743 -2.89654,-0.30452 z M 286,235.58572 c 0,-1.67972 14.05788,-66.93141 14.52654,-67.42703 0.17751,-0.18771 1.17709,-0.0701 2.2213,0.26128 1.97805,0.62781 1.52068,3.11253 -11.28903,61.33003 -1.30864,5.94748 -1.94229,7.25 -3.52702,7.25 C 286.86931,237 286,236.36357 286,235.58572 Z M 168.27437,219.61263 c -3.47381,-3.18351 -3.71686,-3.80039 -4.03856,-10.25 -0.40959,-8.21185 1.47623,-12.04904 7.27363,-14.80009 6.75796,-3.20686 15.79391,-0.0728 18.47885,6.40919 0.74861,1.8073 1.07356,5.49651 0.80778,9.17087 -0.40091,5.54241 -0.80487,6.47736 -4.10568,9.50232 C 183.45955,222.60577 182.37966,223 177.5,223 c -4.89014,0 -5.95668,-0.3916 -9.22563,-3.38737 z m 15.0667,-1.66628 c 5.63835,-4.43512 5.63246,-15.95191 -0.0101,-19.64902 -6.01465,-3.94096 -13.50948,-1.06202 -15.38698,5.91049 C 165.76615,212.2959 170.42795,220 177.5,220 c 1.77666,0 4.40514,-0.92414 5.84107,-2.05365 z M 653.82741,204.3204 C 650.58094,203.78798 646,199.42395 646,196.86364 c 0,-2.7958 2.34089,-2.24641 4.84188,1.13636 1.82717,2.47138 2.92913,3 6.2538,3 5.23362,0 7.90432,-1.49097 7.90432,-4.41274 0,-3.07454 -1.30695,-4.00573 -8.5,-6.05619 -7.42316,-2.11605 -9.5,-3.88978 -9.5,-8.11348 0,-4.76036 3.76091,-7.41759 10.4985,-7.41759 4.31615,0 5.68892,0.46015 7.86514,2.63636 C 668.5008,180.77352 668.76495,183 666,183 c -1.1,0 -2,-0.41786 -2,-0.92857 0,-3.90456 -9.31035,-5.59595 -12.34501,-2.24269 -0.91025,1.00581 -1.65499,2.09867 -1.65499,2.42857 0,1.52098 3.47053,3.78696 7.295,4.76304 7.38321,1.88435 9.50499,3.08257 10.74053,6.06544 1.41073,3.40579 0.0886,7.73109 -2.94167,9.62352 -2.27735,1.42223 -7.69455,2.19688 -11.26645,1.61109 z M 674,193.5 c 0,-8.66667 0.2619,-10.5 1.5,-10.5 1.2381,0 1.5,1.83333 1.5,10.5 0,8.66667 -0.2619,10.5 -1.5,10.5 -1.2381,0 -1.5,-1.83333 -1.5,-10.5 z m -472.55217,5.33564 c -0.34674,-1.0925 -0.47685,-2.13447 -0.28914,-2.3155 1.62302,-1.56515 81.1498,-37.44751 81.92872,-36.96611 2.91067,1.79889 -1.57594,4.51504 -26.58741,16.09574 -59.96635,27.76538 -54.3495,25.39977 -55.05217,23.18587 z m 363.80531,-23.75126 c -38.08577,-7.00962 -69.52886,-13.02676 -69.87353,-13.37144 -1.42389,-1.42389 0.67791,-3.91622 2.87971,-3.41478 1.23237,0.28066 32.72658,6.06589 69.98713,12.85607 65.92283,12.01344 67.74654,12.40634 67.75,14.59577 0.002,1.2375 -0.33395,2.21155 -0.74645,2.16457 -0.4125,-0.047 -31.91108,-5.82058 -69.99686,-12.83019 z M 674,177 c 0,-1.11111 0.66667,-2 1.5,-2 0.83333,0 1.5,0.88889 1.5,2 0,1.11111 -0.66667,2 -1.5,2 -0.83333,0 -1.5,-0.88889 -1.5,-2 z m -207.1272,-8.68371 c -10.57232,-6.56142 -7.42783,-25.62073 4.59928,-27.87703 5.45782,-1.02389 12.23617,2.00131 14.66522,6.54514 3.99935,7.48125 1.40059,18.41289 -5.16732,21.73629 -3.4609,1.75124 -10.97095,1.5358 -14.09718,-0.4044 z m 14.20412,-4.23937 C 483.60686,161.54699 484,160.4059 484,155.5927 c 0,-4.71176 -0.43886,-6.05231 -2.8733,-8.77692 -7.37095,-8.24953 -18.91464,-0.15987 -16.69039,11.69639 1.55846,8.30731 10.8057,11.39967 16.64061,5.56475 z M 685.21115,166.75 c -0.77128,-0.93263 5.01551,-7.47038 22.7922,-25.75 21.33459,-21.93817 23.98771,-24.34315 25.3731,-23 1.38672,1.34445 -0.89479,4.01475 -22.00086,25.75 -12.95141,13.3375 -23.90412,24.25 -24.33936,24.25 -0.43524,0 -1.25652,-0.5625 -1.82508,-1.25 z M 295.5,163.05464 c -2.60812,-1.06748 -5.07908,-3.98387 -5.76535,-6.80464 -0.82429,-3.38804 2.39839,-2.88236 4.43408,0.69576 2.99556,5.26526 13.62806,5.06347 14.65677,-0.27817 0.5537,-2.87512 -1.65454,-4.53199 -8.92657,-6.69769 C 292.61428,147.80044 291,146.21333 291,141.22073 c 0,-3.87801 2.94704,-6.34772 8.29371,-6.95037 5.31373,-0.59893 10.36326,1.69719 11.74925,5.34264 1.27363,3.34989 1.2622,3.387 -1.04296,3.387 -1.1,0 -2,-0.45 -2,-1 0,-2.03255 -4.08869,-5 -6.88922,-5 -1.58906,0 -3.95156,0.87181 -5.25,1.93735 -3.51957,2.8883 -1.53192,5.10719 7.22238,8.06265 5.91447,1.99673 7.6762,3.06864 8.75139,5.32471 1.75603,3.68466 0.0311,8.17628 -3.92574,10.22245 -3.03799,1.571 -9.19515,1.82281 -12.40881,0.50748 z M 318,153.5 c 0,-8.66667 0.2619,-10.5 1.5,-10.5 1.2381,0 1.5,1.83333 1.5,10.5 0,8.66667 -0.2619,10.5 -1.5,10.5 -1.2381,0 -1.5,-1.83333 -1.5,-10.5 z m 65,1.43745 c -28.325,-1.53689 -52.0625,-2.82654 -52.75,-2.8659 -1.68131,-0.0962 -1.60863,-4.07155 0.0744,-4.07155 0.72844,0 27.39094,1.34893 59.25,2.99762 31.85906,1.64869 58.93806,2.99869 60.17556,3 1.58254,0.002 2.25,0.59568 2.25,2.00238 0,1.85784 -0.62197,1.99047 -8.75,1.8659 -4.8125,-0.0738 -31.925,-1.39156 -60.25,-2.92845 z M 318,136.5 c 0,-0.825 0.675,-1.5 1.5,-1.5 0.825,0 1.5,0.675 1.5,1.5 0,0.825 -0.675,1.5 -1.5,1.5 -0.825,0 -1.5,-0.675 -1.5,-1.5 z m -20,-16.79048 c 0,-0.15976 -3.15,-16.00404 -7,-35.20952 -3.85,-19.205475 -7,-35.447276 -7,-36.092892 0,-0.645615 0.9,-1.409201 2,-1.696857 1.1,-0.287656 2,-0.322221 2,-0.07681 0,0.245411 3.15,15.998978 7,35.007926 3.85,19.008953 7,35.416033 7,36.460183 0,1.23178 -0.70233,1.89845 -2,1.89845 -1.1,0 -2,-0.13071 -2,-0.29048 z"
     style="fill:#000000" />
  <text
     id="text16"
     y="307.16788"
     x="14.903026"
     style="font-style:normal;font-weight:normal;font-size:40px;line-height:1.25;font-family:sans-serif;letter-spacing:0px;word-spacing:0px;fill:#000000;fill-opacity:1;stroke:none"
     xml:space="preserve"><tspan
       y="307.16788"
       x="14.903026"
       id="tspan14">H</tspan></text>
  <text
     id="text16-0"
     y="39.418438"
     x="263.15073"
     style="font-style:normal;font-weight:normal;font-size:40px;line-height:1.25;font-family:sans-serif;letter-spacing:0px;word-spacing:0px;fill:#000000;fill-opacity:1;stroke:none"
     xml:space="preserve"><tspan
       y="39.418438"
       x="263.15073"
       id="tspan14-1">H</tspan></text>
  <text
     id="text16-8"
     y="113.93357"
     x="723.48859"
     style="font-style:normal;font-weight:normal;font-size:40px;line-height:1.25;font-family:sans-serif;letter-spacing:0px;word-spacing:0px;fill:#000000;fill-opacity:1;stroke:none"
     xml:space="preserve"><tspan
       y="113.93357"
       x="723.48859"
       id="tspan14-2">H</tspan></text>
  <text
     id="text16-7"
     y="538.66974"
     x="801.31543"
     style="font-style:normal;font-weight:normal;font-size:40px;line-height:1.25;font-family:sans-serif;letter-spacing:0px;word-spacing:0px;fill:#000000;fill-opacity:1;stroke:none"
     xml:space="preserve"><tspan
       y="538.66974"
       x="801.31543"
       id="tspan14-15">H</tspan></text>
  <text
     id="text16-4"
     y="778.77405"
     x="581.08191"
     style="font-style:normal;font-weight:normal;font-size:40px;line-height:1.25;font-family:sans-serif;letter-spacing:0px;word-spacing:0px;fill:#000000;fill-opacity:1;stroke:none"
     xml:space="preserve"><tspan
       y="778.77405"
       x="581.08191"
       id="tspan14-0">H</tspan></text>
  <text
     id="text16-88"
     y="746.48419"
     x="102.52923"
     style="font-style:normal;font-weight:normal;font-size:40px;line-height:1.25;font-family:sans-serif;letter-spacing:0px;word-spacing:0px;fill:#000000;fill-opacity:1;stroke:none"
     xml:space="preserve"><tspan
       y="746.48419"
       x="102.52923"
       id="tspan14-00">H</tspan></text>
  <text
     id="text16-72"
     y="428.55295"
     x="172.90463"
     style="font-style:normal;font-weight:normal;font-size:40px;line-height:1.25;font-family:sans-serif;letter-spacing:0px;word-spacing:0px;fill:#000000;fill-opacity:1;stroke:none"
     xml:space="preserve"><tspan
       y="428.55295"
       x="172.90463"
       id="tspan14-7">H</tspan></text>
  <text
     id="text16-85"
     y="379.70416"
     x="596.81287"
     style="font-style:normal;font-weight:normal;font-size:40px;line-height:1.25;font-family:sans-serif;letter-spacing:0px;word-spacing:0px;fill:#000000;fill-opacity:1;stroke:none"
     xml:space="preserve"><tspan
       y="379.70416"
       x="596.81287"
       id="tspan14-16">H</tspan></text>
</svg>
