<?xml version="1.0" encoding="UTF-8" standalone="no"?>
<!-- Created with Inkscape (http://www.inkscape.org/) -->
<svg
   xmlns:svg="http://www.w3.org/2000/svg"
   xmlns="http://www.w3.org/2000/svg"
   version="1.0"
   width="464"
   height="520"
   viewBox='0 0 464 520'
   id="svg2">
<title>rubrene/molec-a_CAM-B3LYPp2p.xyz</title>
  <defs
     id="defs4" />
  <g
     transform="translate(-725.71429,-626.0205)"
     id="layer1">
    <path
       d="M 829.49879,1112.7798 L 806.44134,1089.7186 L 814.47057,1059.658 C 818.88664,1043.1248 822.70548,1028.9407 822.95688,1028.1378 L 823.41396,1026.678 L 853.88735,1018.5426 C 870.64772,1014.0681 884.50744,1010.2801 884.68674,1010.1249 C 884.99216,1009.8604 900.57566,952.23495 900.69013,950.94673 C 900.71918,950.61978 888.73937,943.41567 874.06834,934.9376 C 850.5083,921.32277 847.27338,919.58638 846.36313,920.06648 C 845.79632,920.36544 833.3539,927.52072 818.71331,935.9671 L 792.09407,951.32416 L 763.9052,935.05941 L 735.71634,918.79466 L 735.72017,886.02131 L 735.72399,853.24795 L 763.90792,836.97961 L 792.09185,820.71126 L 819.67586,836.65153 C 839.77384,848.26577 847.45603,852.47613 847.98262,852.1656 C 848.38013,851.9312 860.47998,844.94857 874.87118,836.64866 C 891.19765,827.23261 900.9519,821.33614 900.81069,820.96816 C 900.68622,820.64379 897.07554,807.28426 892.78695,791.2803 C 888.49836,775.27633 884.78521,762.05564 884.53551,761.90098 C 884.2858,761.74633 870.43418,757.96707 853.75413,753.50263 L 823.42676,745.38549 L 822.96041,743.90633 C 822.70393,743.09279 818.88134,728.90024 814.46578,712.36734 L 806.4375,682.30751 L 829.54936,659.19564 L 852.66123,636.08378 L 883.81648,644.42146 C 900.95186,649.00719 915.15404,652.8783 915.37688,653.02392 C 915.59973,653.16956 919.57594,667.38222 924.21291,684.60763 L 932.64376,715.92655 L 910.08482,738.57254 L 887.52588,761.21853 L 895.59832,791.30174 L 903.67076,821.38495 L 930.62925,836.95693 C 945.45641,845.52152 957.73497,852.47387 957.91494,852.4066 C 958.0949,852.33934 970.26581,845.34596 984.9614,836.86575 L 1011.6806,821.44721 L 1019.6985,791.57378 C 1024.1083,775.1434 1027.7138,761.48438 1027.7107,761.22042 C 1027.7076,760.95646 1017.6122,750.64596 1005.2765,738.30818 L 982.848,715.87586 L 991.13464,684.82319 C 995.69218,667.74424 999.65983,653.52931 999.9514,653.23447 C 1000.2431,652.93963 1014.5381,648.94588 1031.7183,644.35945 L 1062.9549,636.0205 L 1085.9988,659.10949 L 1109.0425,682.19848 L 1100.569,713.77417 L 1092.0954,745.34985 L 1061.7071,753.46527 C 1044.9935,757.92876 1031.0754,761.82444 1030.7781,762.12235 C 1030.4807,762.42026 1026.7132,775.85519 1022.4059,791.97774 C 1015.814,816.651 1014.6792,821.38857 1015.2372,821.90485 C 1015.6018,822.24222 1027.644,829.2826 1041.9977,837.55016 L 1068.0952,852.58208 L 1094.7581,837.2043 C 1109.4226,828.74652 1121.8673,821.59308 1122.4129,821.30777 C 1123.2702,820.85953 1127.2308,822.99605 1151.5636,837.03273 L 1179.7222,853.27641 L 1179.7222,886.02383 L 1179.7222,918.77126 L 1159.4854,930.45209 C 1148.3551,936.87654 1135.648,944.20008 1131.2474,946.72661 L 1123.2463,951.3203 L 1095.6729,935.39205 L 1068.0997,919.46379 L 1041.9999,934.49673 C 1027.6451,942.76485 1015.6005,949.80188 1015.2341,950.13459 C 1014.673,950.64415 1015.8037,955.3601 1022.4068,980.05012 C 1026.7182,996.17095 1030.4211,1009.5856 1030.6356,1009.8605 C 1030.8501,1010.1353 1044.7643,1014.0338 1061.5561,1018.5238 L 1092.0867,1026.6873 L 1100.5614,1058.2569 L 1109.0361,1089.8263 L 1085.9874,1112.9233 L 1062.9387,1136.0205 L 1031.7102,1127.6763 C 1014.5345,1123.0872 1000.2431,1119.0897 999.9514,1118.7933 C 999.65983,1118.4968 995.69218,1104.2805 991.13464,1087.2015 L 982.848,1056.1489 L 1005.2765,1033.7166 C 1017.6122,1021.3788 1027.705,1011.0501 1027.705,1010.764 C 1027.705,1009.3283 1011.7436,951.03845 1011.2153,950.54503 C 1010.8769,950.22897 998.69685,943.10777 984.14847,934.72013 L 957.69688,919.46991 L 930.68459,935.06655 L 903.67232,950.66319 L 895.60155,980.7347 L 887.53079,1010.8062 L 910.08729,1033.4522 L 932.64376,1056.0981 L 924.21858,1087.4171 C 919.58473,1104.6425 915.71606,1118.8239 915.62156,1118.9313 C 915.44407,1119.133 853.44774,1135.841 852.87679,1135.841 C 852.70048,1135.841 842.18039,1125.4634 829.49879,1112.7798 z M 884.11983,1124.7132 C 900.15271,1120.4221 913.31732,1116.8774 913.37453,1116.8362 C 913.43174,1116.795 917.10038,1103.2577 921.52705,1086.7532 L 929.57557,1056.7451 L 907.62116,1034.7907 L 885.66676,1012.8363 L 855.63634,1020.8815 C 839.11961,1025.3064 825.57558,1028.9692 825.53851,1029.0213 C 825.50143,1029.0732 821.87211,1042.5588 817.47334,1058.9891 L 809.47557,1088.8626 L 831.49375,1110.9024 C 845.665,1125.0875 853.77159,1132.8661 854.24054,1132.7287 C 854.64127,1132.6113 868.08696,1129.0044 884.11983,1124.7132 z M 836.26757,1106.0573 L 817.5817,1087.3669 L 818.59182,1086.4528 C 819.60052,1085.5398 819.62786,1085.5646 838.24211,1104.1788 L 856.8823,1122.8189 L 855.91787,1123.7834 L 854.95345,1124.7478 L 836.26757,1106.0573 z M 906.00587,1109.9353 C 905.65641,1109.6969 907.69116,1101.3562 912.23392,1084.4057 C 918.62599,1060.5547 919.03843,1059.2301 920.07242,1059.2301 C 920.6727,1059.2301 921.26998,1059.4019 921.39973,1059.6117 C 921.52947,1059.8217 918.6152,1071.2591 914.92357,1085.0282 C 911.23195,1098.7974 908.21148,1110.1173 908.21142,1110.1835 C 908.21116,1110.457 906.48609,1110.2627 906.00587,1109.9353 z M 832.26095,1035.7851 C 832.09901,1035.1398 832.0561,1034.5223 832.16559,1034.4128 C 832.58104,1033.9974 882.44725,1020.7843 882.79308,1020.998 C 882.99278,1021.1215 883.15617,1021.7147 883.15617,1022.3163 C 883.15617,1023.3501 882.05301,1023.705 863.03979,1028.7894 C 851.97578,1031.7482 840.59061,1034.7965 837.73941,1035.5636 L 832.55539,1036.9582 L 832.26095,1035.7851 z M 1083.9566,1111.1492 C 1095.9492,1099.1588 1105.7613,1089.1105 1105.7613,1088.8199 C 1105.7613,1088.0736 1090.0027,1029.3377 1089.7291,1029.0641 C 1089.6054,1028.9404 1076.1066,1025.2505 1059.7319,1020.8643 L 1029.9596,1012.8893 L 1007.9157,1034.9755 L 985.87157,1057.0619 L 993.89384,1086.9548 L 1001.9161,1116.8477 L 1031.5541,1124.8456 C 1047.855,1129.2445 1061.408,1132.8675 1061.672,1132.8968 C 1061.936,1132.926 1071.964,1123.1396 1083.9566,1111.1492 z M 1033.6074,1118.3 C 1007.9715,1111.4043 1007.6639,1111.2949 1008.8197,1109.4759 C 1009.0976,1109.0385 1015.3607,1110.5409 1033.3626,1115.3633 C 1046.6561,1118.9244 1058.0519,1121.9684 1058.6867,1122.1277 C 1059.602,1122.3575 1059.7944,1122.6612 1059.6158,1123.5953 C 1059.4919,1124.243 1059.2539,1124.8403 1059.0869,1124.9225 C 1058.9197,1125.0046 1047.454,1122.0245 1033.6074,1118.3 z M 1088.7593,1061.7588 C 1085.1057,1048.0452 1082.1244,1036.5792 1082.1341,1036.2789 C 1082.1438,1035.9785 1082.6786,1035.6321 1083.3225,1035.509 C 1084.2127,1035.3388 1084.5542,1035.5274 1084.7478,1036.296 C 1084.8878,1036.852 1087.9375,1048.2443 1091.5249,1061.6122 C 1096.4645,1080.0187 1097.9019,1086.01 1097.4476,1086.2986 C 1095.6325,1087.4511 1095.5176,1087.1263 1088.7593,1061.7588 z M 995.18224,1059.2309 C 994.26942,1058.2223 994.29422,1058.1947 1012.7856,1039.6987 L 1031.303,1021.1766 L 1032.2674,1022.1411 L 1033.2319,1023.1055 L 1014.6641,1041.6733 L 996.09644,1060.241 L 995.18224,1059.2309 z M 819.55468,932.38031 L 845.81438,917.18623 L 845.81438,886.03182 L 845.81438,854.87741 L 819.16643,839.48734 C 804.51006,831.02281 792.32823,824.09728 792.09569,824.09728 C 791.86316,824.09728 779.67895,831.02338 765.01966,839.48862 L 738.36641,854.87997 L 738.36641,886.02252 L 738.36641,917.16509 L 764.86703,932.5333 C 781.22861,942.0217 791.73634,947.83893 792.33131,947.73794 C 792.86132,947.64798 805.11183,940.73704 819.55468,932.38031 z M 792.06271,938.72097 C 791.76383,938.1625 791.702,937.53861 791.9253,937.33455 C 792.64145,936.6801 836.98093,911.22722 837.11895,911.39133 C 837.19204,911.47824 837.49519,912.01762 837.79262,912.58998 C 838.30831,913.58233 837.28369,914.23637 815.7135,926.6835 C 803.27255,933.86257 792.98392,939.73636 792.84987,939.73636 C 792.71581,939.73636 792.36159,939.27943 792.06271,938.72097 z M 744.87111,886.01236 L 744.87111,859.75265 L 746.31659,859.75265 L 747.76208,859.75265 L 747.76208,886.01236 L 747.76208,912.27208 L 746.31659,912.27208 L 744.87111,912.27208 L 744.87111,886.01236 z M 814.26674,847.72862 C 801.95065,840.60172 791.81123,834.5828 791.73471,834.35322 C 791.65819,834.12365 791.88434,833.5409 792.23728,833.05822 C 792.83415,832.24196 794.44212,833.08157 815.25113,845.0751 C 827.55582,852.16705 837.80371,858.12837 838.02422,858.32247 C 838.40379,858.65658 837.42698,860.73305 836.90509,860.70145 C 836.77008,860.69328 826.58282,854.8555 814.26674,847.72862 z M 929.65272,932.54975 L 956.15334,917.22019 L 956.15334,886.02963 L 956.15334,854.83907 L 929.89364,839.63031 C 915.45079,831.26548 903.20028,824.40278 902.67027,824.37986 C 902.14025,824.35694 889.72712,831.2463 875.08553,839.68955 L 848.46445,855.04089 L 848.46445,886.0198 L 848.46445,916.99871 L 875.08553,932.42319 C 889.72712,940.90666 902.03185,947.85479 902.42935,947.86349 C 902.82686,947.87219 915.07738,940.981 929.65272,932.54975 z M 902.40167,938.72097 C 902.10279,938.1625 902.04096,937.54449 902.26426,937.34759 C 902.48756,937.15069 912.71889,931.19798 925.00053,924.11935 C 945.8097,912.12577 947.3758,911.30854 947.99158,912.12195 C 948.35501,912.60203 948.59844,913.17861 948.53253,913.40324 C 948.41161,913.81538 903.92911,939.68983 903.2895,939.72007 C 903.10007,939.72903 902.70055,939.27943 902.40167,938.72097 z M 924.59961,847.70116 C 912.28019,840.56931 902.15103,834.56329 902.09039,834.35447 C 902.02975,834.14563 902.27971,833.57897 902.64584,833.0952 C 903.26821,832.27286 904.76404,833.05257 925.63689,845.07956 C 937.91583,852.15471 948.14267,858.10815 948.36318,858.30944 C 948.74349,858.65656 947.76349,860.74317 947.24405,860.69225 C 947.10904,860.67902 936.91905,854.83303 924.59961,847.70116 z M 1039.9916,932.58002 L 1066.4922,917.26722 L 1066.4922,886.03749 L 1066.4922,854.80776 L 1039.9916,839.46113 C 1024.6836,830.59621 1013.1316,824.1944 1012.6402,824.30367 C 1012.1724,824.40771 999.98469,831.28797 985.5565,839.59315 L 959.32346,854.69345 L 959.31951,886.01236 L 959.31555,917.33128 L 985.68056,932.58364 C 1000.1813,940.97243 1012.3708,947.84877 1012.7682,947.8644 C 1013.1658,947.88004 1025.4163,941.00207 1039.9916,932.58002 z M 1012.8508,938.72577 C 1012.5037,938.16996 1012.318,937.61677 1012.4384,937.49647 C 1012.5587,937.37617 1022.8094,931.41806 1035.2178,924.25624 C 1056.0195,912.24996 1057.8274,911.30182 1058.4076,912.09529 C 1058.7537,912.5686 1058.9691,913.15908 1058.8864,913.40746 C 1058.7516,913.81177 1014.3238,939.70556 1013.7273,939.72737 C 1013.5923,939.73232 1013.1979,939.2816 1012.8508,938.72577 z M 1034.8474,847.62387 C 1012.726,834.80152 1012.3659,834.56852 1012.8894,833.41941 C 1013.1822,832.77687 1013.6624,832.34349 1013.9566,832.45638 C 1014.8016,832.78067 1058.2547,857.87887 1058.7071,858.30402 C 1059.1378,858.70866 1058.266,860.73589 1057.6819,860.68818 C 1057.4925,860.67272 1047.2169,854.79378 1034.8474,847.62387 z M 1150.3306,932.60413 L 1176.8312,917.29916 L 1176.8312,886.03137 L 1176.8312,854.76357 L 1150.3306,839.44455 C 1135.7553,831.0191 1123.6131,824.11995 1123.3481,824.1131 C 1123.0832,824.10626 1110.941,830.9873 1096.3656,839.40431 L 1069.8651,854.70795 L 1069.7608,886.01962 L 1069.6566,917.33128 L 1096.246,932.62938 C 1110.8701,941.04332 1123.0591,947.92333 1123.3327,947.91828 C 1123.6062,947.91323 1135.7553,941.02186 1150.3306,932.60413 z M 1123.2311,938.61129 C 1122.7336,937.51927 1123.3852,937.10103 1145.4233,924.3678 C 1166.2761,912.31942 1168.1789,911.31897 1168.752,912.10262 C 1169.0951,912.5719 1169.307,913.16232 1169.2229,913.41468 C 1169.0788,913.84688 1124.6354,939.72817 1124.0277,939.73375 C 1123.8715,939.73519 1123.5131,939.23008 1123.2311,938.61129 z M 1145.1909,847.60161 C 1123.1416,834.82041 1122.7155,834.54498 1123.233,833.4093 C 1123.5278,832.76216 1124.0399,832.35826 1124.3933,832.49391 C 1125.3273,832.85231 1168.5702,857.83999 1169.0461,858.29627 C 1169.4782,858.71044 1168.602,860.744 1168.0209,860.67604 C 1167.8315,860.65389 1157.558,854.77039 1145.1909,847.60161 z M 907.69141,737.16511 L 929.57263,715.27993 L 921.51178,685.25789 C 917.07832,668.74576 913.41034,655.21188 913.36073,655.18259 C 913.31111,655.1533 899.82748,651.52469 883.39709,647.119 L 853.52365,639.10866 L 831.49769,661.1354 L 809.47173,683.16214 L 817.46781,713.03557 C 821.86566,729.46595 825.50723,742.9629 825.56019,743.02878 C 825.72466,743.23334 884.31787,758.96158 885.08547,759.00721 C 885.48407,759.0309 895.65675,749.20196 907.69141,737.16511 z M 883.00685,749.99675 C 882.27206,749.1848 883.32008,748.04085 900.90546,730.45983 L 919.58454,711.78534 L 920.49794,712.79463 C 921.4098,713.80224 921.38039,713.83487 902.88839,732.33156 C 892.70077,742.52176 884.23537,750.85919 884.0764,750.85919 C 883.91742,750.85919 883.43613,750.47108 883.00685,749.99675 z M 830.78895,736.04399 C 830.65696,735.57964 827.57414,724.14174 823.93824,710.62642 L 817.32748,686.05311 L 818.47119,685.64155 C 819.10023,685.41519 819.71478,685.32986 819.83683,685.45192 C 820.10686,685.72195 833.04398,733.86802 833.18609,735.13178 C 833.32789,736.39268 831.1262,737.23051 830.78895,736.04399 z M 880.81722,656.40932 C 867.208,652.73848 855.96481,649.62668 855.83235,649.49422 C 855.69989,649.36177 855.77671,648.73872 856.00307,648.10968 L 856.41464,646.96597 L 880.98794,653.57671 C 894.50326,657.21263 905.94116,660.29545 906.4055,660.42743 C 907.06263,660.61421 907.15923,660.91213 906.84132,661.77153 C 906.61667,662.37881 906.23675,662.92244 905.99706,662.97963 C 905.75736,663.0368 894.42643,660.08015 880.81722,656.40932 z M 1059.9265,751.13214 C 1076.1785,746.77715 1089.5838,743.1059 1089.7159,742.97379 C 1090.006,742.68366 1105.7613,684.02136 1105.7613,683.23123 C 1105.7613,682.92604 1095.9455,672.86224 1083.9482,660.86722 L 1062.1352,639.0581 L 1032.0243,647.13208 L 1001.9135,655.20607 L 993.89633,685.08448 L 985.87921,714.96289 L 1007.8743,737.00658 C 1019.9715,749.13062 1029.9836,759.05029 1030.1233,759.05029 C 1030.263,759.05029 1043.6744,755.48712 1059.9265,751.13214 z M 1032.2406,750.14138 C 1032.0674,749.45147 1032.006,748.82439 1032.104,748.74787 C 1032.4658,748.46567 1081.5732,735.44064 1082.2754,735.44064 C 1082.6756,735.44064 1083.1067,735.9827 1083.2333,736.64522 C 1083.3599,737.30773 1083.3739,737.84979 1083.2644,737.84979 C 1083.0754,737.84979 1035.1249,750.63625 1033.3826,751.15127 C 1032.7927,751.32563 1032.465,751.03593 1032.2406,750.14138 z M 995.06107,712.90078 C 994.46482,712.80555 993.96899,712.47169 993.95921,712.15885 C 993.94944,711.84603 996.93078,700.37138 1000.5843,686.65963 C 1007.3402,661.30543 1007.4605,660.96559 1009.2714,662.11565 C 1009.7239,662.40301 1008.2173,668.66212 1003.1005,687.75309 C 999.37729,701.64458 996.28916,713.02466 996.23808,713.04214 C 996.18699,713.05964 995.65732,712.99602 995.06107,712.90078 z M 1076.9469,667.83891 L 1058.4964,649.3838 L 1059.5057,648.47042 C 1060.5133,647.55857 1060.546,647.58806 1079.0257,666.06308 C 1096.4526,683.48552 1097.4907,684.61962 1096.7559,685.43158 C 1096.3266,685.90592 1095.8454,686.29403 1095.6864,686.29403 C 1095.5274,686.29403 1087.0946,677.98923 1076.9469,667.83891 z"
       id="path2462"
       style="fill:#000000" />
  </g>
</svg>
