<?xml version='1.0'?>
<!DOCTYPE svg PUBLIC '-//W3C//DTD SVG 1.1//EN' 'http://www.w3.org/Graphics/SVG/1.1/DTD/svg11.dtd'>
<svg width='80pt' height='78pt' viewBox='0 0 80 78' version='1.1' xmlns="http://www.w3.org/2000/svg" xmlns:xlink="http://www.w3.org/1999/xlink">
<title>twistane/molec_B3LYPp2p.xyz</title>
<g>
<path style="fill:none;stroke-width:4;stroke-linecap:butt;stroke-linejoin:miter;stroke:rgb(0%,0%,0%);stroke-opacity:1;stroke-miterlimit:10;" d="M 119.257073 96.054108 L 81.745354 120.882233 " transform="matrix(1,0,0,1,-60.694573,-69.151764)"/>
<path style="fill:none;stroke-width:1;stroke-linecap:butt;stroke-linejoin:miter;stroke:rgb(0%,0%,0%);stroke-opacity:1;stroke-miterlimit:10;" d="M 82.940666 93.515045 L 118.147698 121.515045 " transform="matrix(1,0,0,1,-60.694573,-69.151764)"/>
<path style=" stroke:none;fill-rule:nonzero;fill:rgb(0%,0%,0%);fill-opacity:1;" d="M 75.171875 41.113281 L 59.863281 25.382812 L 57.265625 28.421875 Z M 75.171875 41.113281 "/>
<path style="fill:none;stroke-width:1;stroke-linecap:butt;stroke-linejoin:miter;stroke:rgb(0%,0%,0%);stroke-opacity:1;stroke-miterlimit:10;" d="M 135.866448 110.265045 L 118.147698 121.515045 " transform="matrix(1,0,0,1,-60.694573,-69.151764)"/>
<path style=" stroke:none;fill-rule:nonzero;fill:rgb(0%,0%,0%);fill-opacity:1;" d="M 3.5 34.882812 L 19.667969 53.171875 L 22.4375 50.285156 Z M 3.5 34.882812 "/>
<path style="fill:none;stroke-width:1;stroke-linecap:butt;stroke-linejoin:miter;stroke:rgb(0%,0%,0%);stroke-opacity:1;stroke-miterlimit:10;" d="M 82.940666 93.515045 L 91.370354 72.651764 " transform="matrix(1,0,0,1,-60.694573,-69.151764)"/>
<path style="fill:none;stroke-width:1;stroke-linecap:butt;stroke-linejoin:miter;stroke:rgb(0%,0%,0%);stroke-opacity:1;stroke-miterlimit:10;" d="M 91.370354 72.651764 L 113.815666 74.222077 " transform="matrix(1,0,0,1,-60.694573,-69.151764)"/>
<path style=" stroke:none;fill-rule:nonzero;fill:rgb(0%,0%,0%);fill-opacity:1;" d="M 53.121094 5.070312 L 56.625 27.386719 L 60.503906 26.417969 Z M 53.121094 5.070312 "/>
<path style="fill:none;stroke-width:1;stroke-linecap:butt;stroke-linejoin:miter;stroke:rgb(0%,0%,0%);stroke-opacity:1;stroke-miterlimit:10;" d="M 118.147698 121.515045 L 110.823479 142.792389 " transform="matrix(1,0,0,1,-60.694573,-69.151764)"/>
<path style="fill:none;stroke-width:1;stroke-linecap:butt;stroke-linejoin:miter;stroke:rgb(0%,0%,0%);stroke-opacity:1;stroke-miterlimit:10;" d="M 82.940666 93.515045 L 64.194573 104.034577 " transform="matrix(1,0,0,1,-60.694573,-69.151764)"/>
<path style=" stroke:none;fill-rule:nonzero;fill:rgb(0%,0%,0%);fill-opacity:1;" d="M 27.628906 73.246094 L 22.964844 51.144531 L 19.140625 52.316406 Z M 27.628906 73.246094 "/>
<path style="fill:none;stroke-width:1;stroke-linecap:butt;stroke-linejoin:miter;stroke:rgb(0%,0%,0%);stroke-opacity:1;stroke-miterlimit:10;" d="M 110.823479 142.792389 L 88.323479 142.397858 " transform="matrix(1,0,0,1,-60.694573,-69.151764)"/>
<path style=" stroke:none;fill-rule:nonzero;fill:rgb(0%,0%,0%);fill-opacity:1;" d="M 23.050781 51.730469 C 23.050781 54.398438 19.050781 54.398438 19.050781 51.730469 C 19.050781 49.0625 23.050781 49.0625 23.050781 51.730469 "/>
<path style=" stroke:none;fill-rule:nonzero;fill:rgb(0%,0%,0%);fill-opacity:1;" d="M 60.5625 26.902344 C 60.5625 29.566406 56.5625 29.566406 56.5625 26.902344 C 56.5625 24.234375 60.5625 24.234375 60.5625 26.902344 "/>
</g>
</svg>
