<?xml version="1.0" encoding="UTF-8" standalone="no"?>
<svg
   xmlns:dc="http://purl.org/dc/elements/1.1/"
   xmlns:cc="http://creativecommons.org/ns#"
   xmlns:rdf="http://www.w3.org/1999/02/22-rdf-syntax-ns#"
   xmlns:svg="http://www.w3.org/2000/svg"
   xmlns="http://www.w3.org/2000/svg"
   viewBox="0 0 118 75"
   height="75"
   width="118"
   version="1.1">
<title>VOacac2/molec_B3LYPp2p.xyz</title>
<path style="fill:#000000; stroke-width:0.31893864" d="M 8.0552304,70.649008 7.0146362,69.774836 11.849681,63.16898 16.684725,56.563125 14.066448,53.632556 C 12.626396,52.020745 9.5005651,48.51184 7.1201578,45.834991 L 2.7921443,40.967994 3.736929,39.954196 c 0.5196316,-0.557588 3.637342,-3.899488 6.928245,-7.426446 l 5.983461,-6.412647 -5.634834,-6.737739 C 5.8553613,13.209264 5.422129,12.59675 5.8894838,12.13249 c 0.6228461,-0.618721 -0.07077,-1.326082 6.7275742,6.860888 l 5.345265,6.437086 h 7.658838 c 7.445505,0 7.658839,0.01771 7.658839,0.635762 0,0.617998 -0.213334,0.635761 -7.635444,0.635761 h -7.635445 l -6.422528,6.913908 c -3.5323897,3.802649 -6.4499152,7.042296 -6.4833894,7.199218 -0.033475,0.156918 3.5896243,3.268177 8.0513304,6.913907 l 8.112193,6.628597 h 6.824175 6.824174 l -0.09753,1.509934 -0.09753,1.509933 -7.394148,0.08522 -7.394149,0.08522 -5.084902,6.987631 c -2.796696,3.843198 -5.2347684,6.98763 -5.4179389,6.98763 -0.1831709,0 -0.801305,-0.393377 -1.3736317,-0.874172 z M 104.66108,63.802819 99.08215,56.80294 92.261075,57.006791 85.44,57.210641 v -1.537853 -1.53785 l 2.929158,-0.206543 c 1.61104,-0.113598 4.389037,-0.20654 6.173332,-0.20654 h 3.244169 l 7.186671,-6.544771 c 3.95267,-3.599625 7.22883,-6.657724 7.28037,-6.79578 0.0515,-0.138056 -3.15912,-3.379159 -7.13478,-7.202454 l -7.228459,-6.951448 -4.385232,0.08453 C 91.093354,26.358421 87.932,26.482121 86.48,26.586821 l -2.64,0.190362 v -0.8323 -0.8323 l 3.44,-0.04182 c 1.892,-0.023 5.047123,-0.130286 7.011382,-0.238411 l 3.571383,-0.19659 3.286005,-4.291391 c 7.45687,-9.738365 7.3105,-9.569811 7.99445,-9.206201 0.57458,0.305475 0.18921,0.905481 -4.66633,7.26519 l -5.292634,6.932216 5.207874,5.064989 c 2.86433,2.785742 6.32606,6.132922 7.69273,7.438173 l 2.48487,2.373183 -6.08083,7.760342 c -3.71362,4.739313 -5.98054,7.894887 -5.82321,8.10596 0.14168,0.190089 2.44387,3.090027 5.11596,6.444299 2.67209,3.354275 4.85835,6.167421 4.85835,6.251434 0,0.08402 -0.54,0.574853 -1.2,1.090751 l -1.2,0.937993 z M 38.855725,60.448105 c -1.61608,-0.750704 -2.376176,-2.206897 -2.374528,-4.549126 0.0022,-3.063995 1.737088,-4.875035 4.630368,-4.833492 2.914422,0.04185 4.409568,1.680137 4.455011,4.881534 0.02682,1.887862 -0.77449,3.611335 -2.035398,4.377896 -1.198128,0.728392 -3.255885,0.782609 -4.675453,0.123188 z m 4.315219,-1.450493 c 2.18849,-2.314112 0.902813,-6.865161 -1.939414,-6.865161 -1.234663,0 -2.675492,0.837419 -3.124263,1.815837 -0.793248,1.729462 -0.15615,4.701082 1.172727,5.469956 1.080476,0.625151 3.109363,0.40582 3.89095,-0.420632 z m 33.764781,1.450493 c -1.61608,-0.750704 -2.376176,-2.206897 -2.374528,-4.549126 0.0022,-3.063995 1.737088,-4.875035 4.630368,-4.833492 2.914422,0.04185 4.409568,1.680137 4.455011,4.881534 0.02682,1.887862 -0.77449,3.611335 -2.035398,4.377896 -1.198128,0.728392 -3.255885,0.782609 -4.675453,0.123188 z m 4.315219,-1.450493 c 2.18849,-2.314112 0.902813,-6.865161 -1.939414,-6.865161 -1.234663,0 -2.675492,0.837419 -3.124263,1.815837 -0.793248,1.729462 -0.15615,4.701082 1.172727,5.469956 1.080476,0.625151 3.109363,0.40582 3.89095,-0.420632 z M 67.749942,49.023237 c -3.713456,-3.695021 -4.638745,-4.781379 -4.332,-5.086093 0.214532,-0.21311 0.504788,-0.387474 0.645012,-0.387474 0.140224,0 2.772361,1.448601 5.849193,3.219112 3.849402,2.215073 5.521507,3.342036 5.361047,3.613224 -0.454605,0.768302 -2.47568,3.320341 -2.637194,3.33002 -0.0902,0.0054 -2.288928,-2.104549 -4.886058,-4.688789 z m -21.459084,2.643834 c -0.831824,-1.014387 -1.471556,-1.882878 -1.421632,-1.929979 0.04993,-0.0471 2.391788,-1.456396 5.204137,-3.131771 4.425687,-2.636472 5.174688,-2.985212 5.569376,-2.593138 0.606829,0.60281 0.343661,0.959879 -4.208707,5.710411 l -3.630768,3.788818 z M 29.44,50.569047 c 0,-0.836691 0.466767,-1.297523 1.314236,-1.297523 0.774148,0 0.925764,0.13015 0.925764,0.794702 0,0.696312 -0.138667,0.794702 -1.12,0.794702 -0.616,0 -1.12,-0.131348 -1.12,-0.291881 z m 4.48,-0.479514 c 0,-0.615252 0.16415,-0.818009 0.662256,-0.818009 0.502992,0 0.637664,0.171223 0.56,0.711983 C 34.990512,51.040063 33.92,51.132926 33.92,50.089533 Z m -8.526029,0.254238 c -0.201317,-0.082 -0.292522,-0.428322 -0.202679,-0.769609 0.113374,-0.430668 0.439873,-0.620519 1.067144,-0.620519 1.01905,0 1.355292,0.341131 1.068366,1.083897 -0.185284,0.479644 -1.136906,0.630415 -1.932831,0.306231 z M 88.96,49.112584 c 0,-0.663939 0.151821,-0.794702 0.922678,-0.794702 0.644388,0 0.971696,0.186201 1.085197,0.617356 0.209363,0.7953 0.0091,0.972048 -1.101209,0.972048 -0.753776,0 -0.906666,-0.134009 -0.906666,-0.794702 z m -67.44,0.149035 c -0.790989,-0.315834 -0.807004,-0.34863 -0.525764,-1.076678 0.396157,-1.025531 2.420399,-0.302203 2.139579,0.764541 C 22.951194,49.6432 22.630836,49.705161 21.52,49.261619 Z m 71.761632,-0.302871 c -0.264189,-0.826865 -0.262163,-0.82909 0.997901,-1.096984 0.891398,-0.189511 1.016422,-0.124746 1.155625,0.59863 0.09138,0.474841 0.0086,0.812929 -0.199532,0.815469 -0.195594,0.0025 -0.665744,0.08699 -1.044778,0.188004 -0.516899,0.137754 -0.744154,0.01151 -0.909216,-0.505119 z m 4.185072,-1.163186 c -0.230262,-0.59608 -0.27271,-0.535686 0.747962,-1.064274 0.669523,-0.346732 0.833894,-0.320726 1.211024,0.191612 0.376307,0.511225 0.360371,0.64799 -0.115831,0.993889 -0.765721,0.556203 -1.602733,0.501152 -1.843155,-0.121227 z M 17.6,47.054458 c -0.740828,-0.568148 -0.761315,-0.652241 -0.276971,-1.136907 0.485575,-0.4859 0.58252,-0.48466 1.353753,0.01732 0.67659,0.440383 0.770421,0.652635 0.505712,1.143974 -0.402753,0.747567 -0.579455,0.744842 -1.582494,-0.02438 z m 83.83502,-1.126646 c -0.33009,-0.395091 -0.29913,-0.59718 0.17041,-1.112583 0.68494,-0.751832 1.21514,-0.798643 1.75307,-0.154773 0.32603,0.390247 0.26164,0.586926 -0.36082,1.102007 -0.92308,0.763846 -1.05131,0.777416 -1.56266,0.165349 z M 58.723904,45.39978 c -0.08428,-0.230807 -0.356854,-0.991832 -0.605725,-1.69117 -0.24887,-0.699338 -0.965053,-2.666225 -1.591517,-4.370861 -1.134688,-3.087538 -1.136291,-3.099338 -0.420892,-3.099338 0.627824,0 0.852796,0.409749 1.788953,3.258278 1.79681,5.467324 1.518384,5.387486 3.048563,0.874173 1.12769,-3.326165 1.460352,-3.990059 2.04194,-4.075089 0.382124,-0.05587 0.692924,-0.05587 0.690662,0 -0.0022,0.05587 -0.769898,2.175751 -1.705859,4.71085 -1.420023,3.846212 -1.816896,4.626119 -2.397319,4.711038 -0.382563,0.05597 -0.764528,-0.08708 -0.848806,-0.317881 z m -44.16706,-1.856176 c -0.48011,-0.92228 -0.471072,-0.970385 0.231782,-1.2336 0.599197,-0.224395 0.807536,-0.133287 1.152802,0.504137 0.327224,0.60411 0.336348,0.879866 0.04082,1.2336 -0.56199,0.672674 -0.869392,0.563952 -1.425402,-0.504137 z m 89.980126,-0.706458 c -0.86054,-0.627268 -0.42317,-2.148404 0.61772,-2.148404 0.84841,0 0.9239,0.362321 0.35088,1.684044 -0.34213,0.789152 -0.45125,0.841465 -0.9686,0.46436 z M 14.0849,39.337749 c 0.0077,-1.119249 0.460841,-1.607717 1.258292,-1.356292 0.451187,0.142251 0.637476,0.391536 0.519951,0.695777 C 15.762414,38.937988 15.68,39.354206 15.68,39.602159 c 0,0.268956 -0.322727,0.450822 -0.8,0.450822 -0.617748,0 -0.798884,-0.16294 -0.7951,-0.715232 z m 89.68179,-1.40276 c -0.3355,-0.717839 -0.31199,-0.90289 0.16,-1.259158 0.47214,-0.356376 0.63547,-0.320662 1.11331,0.243443 0.6954,0.820936 0.71463,1.417338 0.0538,1.669233 -0.79077,0.30144 -0.90772,0.24385 -1.32714,-0.653518 z m -55.032911,-4.02269 c -2.148422,-1.605406 -3.912422,-3.102218 -3.92,-3.326249 -0.03826,-1.131015 1.171184,-0.616401 4.710547,2.004317 2.06562,1.529489 3.886372,2.898415 4.046112,3.042055 0.285213,0.256463 -0.31742,1.264355 -0.729619,1.220275 -0.110451,-0.01179 -1.958617,-1.334988 -4.10704,-2.940398 z m -32.370601,2.218853 c -0.271613,-0.325106 -0.16634,-0.601377 0.447413,-1.174147 0.748297,-0.698333 0.838594,-0.713254 1.334615,-0.220517 0.49602,0.492734 0.492218,0.572176 -0.05619,1.174147 -0.682988,0.749696 -1.225786,0.819051 -1.725836,0.220517 z m 49.296454,0.03934 C 65.450835,35.963082 65.28,35.694342 65.28,35.573303 c 0,-0.121043 1.188,-1.201663 2.64,-2.401377 4.072736,-3.365094 3.718246,-3.150963 4.284746,-2.588215 0.443497,0.440562 0.210544,0.72054 -2.336061,2.807604 -1.555776,1.275033 -3.05385,2.506805 -3.329053,2.737268 -0.385978,0.323231 -0.587162,0.332812 -0.88,0.04191 z m 35.518558,-1.071745 c -0.774,-0.538544 -0.82378,-0.713954 -0.3941,-1.388697 0.25223,-0.396089 0.41159,-0.39977 1.1151,-0.02575 0.90536,0.481325 1.04399,1.020744 0.399,1.552495 -0.31104,0.256434 -0.60514,0.220186 -1.12,-0.138043 z m -42.006494,-0.37027 c -0.07131,-0.60068 0.0479,-7.517824 0.23311,-13.526273 0.20016,-6.493321 0.215994,-6.610642 0.879511,-6.516557 0.756928,0.107331 0.753379,-0.05227 0.311478,14.003095 -0.184045,5.853944 -0.237869,6.278146 -0.796589,6.278146 -0.329564,0 -0.611942,-0.107285 -0.62751,-0.238411 z m 3.707795,-8.10596 c 0.241898,-10.837169 0.328269,-11.682119 1.194131,-11.682119 0.66048,0 0.665341,0.0633 0.457879,5.960265 -0.115331,3.278145 -0.210099,7.784106 -0.210595,10.013245 L 64.32,34.966888 H 63.506618 62.693232 Z M 55.52273,25.350994 c 0.107817,-5.113908 0.262054,-9.619868 0.342748,-10.013245 0.09414,-0.458953 0.379463,-0.715232 0.796269,-0.715232 0.641939,0 0.647309,0.105323 0.457795,8.980132 -0.225948,10.581051 -0.274419,11.046358 -1.150694,11.046358 -0.632701,0 -0.639267,-0.136841 -0.446118,-9.298013 z M 20.15699,33.68978 c -0.444777,-0.825572 -0.433581,-0.84549 0.694901,-1.236274 1.139559,-0.394623 1.078713,-0.415263 1.347729,0.45717 0.157371,0.510364 -0.0027,0.721443 -0.763257,1.00663 -0.831186,0.31166 -1.005595,0.280641 -1.279373,-0.227526 z M 97.04,33.166958 c -0.22,-0.08818 -0.4,-0.521538 -0.4,-0.963007 0,-0.716061 0.09496,-0.779377 0.88,-0.586778 1.142042,0.280185 1.427821,0.579101 1.176253,1.230334 -0.199725,0.517033 -0.850291,0.64251 -1.656253,0.319451 z M 24.235449,32.136992 c -0.19446,-0.73869 -0.124325,-0.809379 1.088032,-1.096616 0.687835,-0.162965 0.877401,-0.07098 1.027307,0.49846 0.222914,0.846777 0.236336,0.831935 -0.968714,1.071347 -0.804368,0.159809 -1.001392,0.0785 -1.146625,-0.473191 z M 83.577744,31.70861 c 0.07837,-0.548186 0.345152,-0.738496 1.142256,-0.814842 0.928934,-0.08897 1.04,-0.01259 1.04,0.715231 0,0.722352 -0.129654,0.814843 -1.142256,0.814843 -1.001526,0 -1.129658,-0.08812 -1.04,-0.715232 z M 92.88,32.199504 c -0.742726,-0.142109 -0.900538,-0.590392 -0.453891,-1.28933 0.163725,-0.256207 0.606211,-0.331567 1.224995,-0.20863 0.815194,0.161959 0.94536,0.313658 0.821485,0.957376 -0.1472,0.764934 -0.245549,0.798315 -1.592589,0.540584 z m -64.4,-0.888245 c 0,-0.69631 0.138667,-0.794702 1.12,-0.794702 0.981333,0 1.12,0.09839 1.12,0.794702 0,0.696311 -0.138667,0.794702 -1.12,0.794702 -0.981333,0 -1.12,-0.09839 -1.12,-0.794702 z m 4.48,-0.02014 c 0,-0.727822 0.111066,-0.804205 1.04,-0.715232 0.797104,0.07635 1.063882,0.266657 1.142256,0.814842 0.08966,0.627112 -0.03847,0.715232 -1.04,0.715232 -1.012602,0 -1.142256,-0.09249 -1.142256,-0.814842 z M 88,31.311259 c 0,-0.700801 0.136384,-0.794702 1.154237,-0.794702 0.921043,0 1.114995,0.101586 0.96,0.50282 C 90.007405,31.295928 89.92,31.653544 89.92,31.814079 c 0,0.160533 -0.432,0.291882 -0.96,0.291882 -0.810666,0 -0.96,-0.123621 -0.96,-0.794702 z M 37.255725,30.885191 c -1.61608,-0.750704 -2.376176,-2.206898 -2.374528,-4.549126 0.0022,-3.063996 1.737088,-4.875037 4.630368,-4.833492 2.914422,0.04185 4.409568,1.680136 4.455011,4.881533 0.02682,1.887862 -0.77449,3.611336 -2.035398,4.377895 -1.198128,0.728392 -3.255885,0.78261 -4.675453,0.12319 z m 4.315219,-1.450492 c 2.18849,-2.314113 0.902813,-6.865162 -1.939414,-6.865162 -1.234663,0 -2.675492,0.837417 -3.124263,1.815838 -0.793248,1.729461 -0.15615,4.701081 1.172727,5.469954 1.080476,0.625153 3.109363,0.40582 3.89095,-0.42063 z m 33.764781,1.450492 c -1.61608,-0.750704 -2.376176,-2.206898 -2.374528,-4.549126 0.0022,-3.063996 1.737088,-4.875037 4.630368,-4.833492 2.914422,0.04185 4.409568,1.680136 4.455011,4.881533 0.02682,1.887862 -0.77449,3.611336 -2.035398,4.377895 -1.198128,0.728392 -3.255885,0.78261 -4.675453,0.12319 z m 4.315219,-1.450492 c 2.18849,-2.314113 0.902813,-6.865162 -1.939414,-6.865162 -1.234663,0 -2.675492,0.837417 -3.124263,1.815838 -0.793248,1.729461 -0.15615,4.701081 1.172727,5.469954 1.080476,0.625153 3.109363,0.40582 3.89095,-0.42063 z M 58.055725,12.448104 c -1.61608,-0.750704 -2.376176,-2.206898 -2.374528,-4.549125 0.0022,-3.0639968 1.737088,-4.8750376 4.630368,-4.8334928 2.914422,0.041848 4.409568,1.6801362 4.455011,4.8815338 0.02682,1.8878613 -0.77449,3.611336 -2.035398,4.377895 -1.198128,0.728392 -3.255885,0.78261 -4.675453,0.123189 z m 4.315219,-1.450492 c 2.18849,-2.3141121 0.902813,-6.8651616 -1.939414,-6.8651616 -1.234663,0 -2.675492,0.8374172 -3.124263,1.8158381 -0.793248,1.729461 -0.15615,4.7010815 1.172727,5.4699545 1.080476,0.625153 3.109363,0.40582 3.89095,-0.420631 z" />
</svg>
