<?xml version="1.0" encoding="UTF-8" standalone="no"?>
<svg
   xmlns:dc="http://purl.org/dc/elements/1.1/"
   xmlns:cc="http://creativecommons.org/ns#"
   xmlns:rdf="http://www.w3.org/1999/02/22-rdf-syntax-ns#"
   xmlns:svg="http://www.w3.org/2000/svg"
   xmlns="http://www.w3.org/2000/svg"
   viewBox="0 0 1100 551"
   height="551"
   width="1100"
   version="1.1">
<title>VX/molec_B3LYPp2p.xyz</title>
<path style="fill:#000000" d="m 1036.8481,486.25071 c -4.6844,-8.11289 -16.0905,-27.80071 -25.3467,-43.75071 -9.2562,-15.95 -20.73873,-35.75 -25.51664,-44 l -8.68709,-15 -49.64884,-0.25934 L 878,382.98133 V 379.99066 377 l 51.25,0.0232 51.25,0.0232 15.9388,27.72676 c 8.7663,15.24972 24.1526,41.93554 34.1917,59.30181 10.0391,17.36627 18.3916,32.13996 18.5612,32.83042 0.1696,0.69046 -0.622,1.89451 -1.7591,2.67567 -1.9826,1.36206 -2.4165,0.8156 -10.5845,-13.33042 z M 168.75694,398.83889 168.5,330.67777 109.36373,296.63632 C 52.222971,263.74357 50.262789,262.51735 51.274248,260.29744 51.849978,259.03385 52.665716,258 53.086999,258 c 0.421283,0 27.197835,15.293 59.503451,33.98444 l 58.73748,33.98443 21.58603,-12.3855 c 11.87232,-6.81202 29.83859,-17.15501 39.92503,-22.98443 C 242.92544,284.76952 251.5721,280 252.05381,280 c 0.4817,0 1.35986,0.90443 1.95146,2.00985 0.9361,1.74912 0.58407,2.30047 -2.71356,4.25 -2.08407,1.23208 -20.21477,11.75428 -40.29046,23.38267 L 174.5,330.78504 174.24306,398.89252 173.98612,467 H 171.5 169.01388 Z m 660.85828,11.58218 C 822.92179,408.2832 815.17282,400.38077 812.53246,393 c -2.53286,-7.08028 -2.55534,-18.46283 -0.0513,-25.96799 2.62807,-7.87685 10.27786,-15.32468 18.0656,-17.58863 11.61627,-3.37694 25.52477,0.54617 31.60896,8.91579 4.58183,6.30292 5.97961,10.38897 6.56555,19.19259 0.98099,14.73934 -4.1367,25.28318 -14.9579,30.81734 -7.00618,3.5831 -16.75955,4.41188 -24.14817,2.05197 z m 16.74476,-6.64707 c 11.33029,-3.39464 17.53161,-18.8481 13.25968,-33.04265 -2.6584,-8.8332 -8.35585,-13.866 -17.31991,-15.29941 -9.03981,-1.44552 -19.75938,5.35544 -22.17905,14.07136 -1.7724,6.38438 -1.36851,18.36658 0.77516,22.9967 4.59388,9.9223 14.83783,14.45771 25.46412,11.274 z M 638.00487,358.31318 c -5.90739,-3.02423 -10.2556,-8.78205 -11.37544,-15.06318 -0.57162,-3.20622 -0.52734,-3.25 3.28716,-3.25 3.36285,0 3.95452,0.35033 4.54149,2.68901 C 636.23476,349.76786 642.81787,354 652.05236,354 661.17846,354 667,349.91065 667,343.5 c 0,-6.34662 -1.33394,-7.12986 -22,-12.91756 -3.025,-0.84718 -6.96661,-2.44569 -8.75914,-3.55224 -7.09458,-4.37959 -9.2017,-13.03858 -4.97441,-20.44179 3.09572,-5.42149 8.41125,-7.96749 17.62347,-8.44116 12.16058,-0.62528 19.7963,2.74884 23.20465,10.25382 2.88258,6.34726 2.56927,7.59893 -1.90212,7.59893 -3.49677,0 -3.95519,-0.33463 -5.6163,-4.09962 C 662.3861,306.93653 658.45797,305 650.57917,305 c -6.69939,0 -10.27665,1.5143 -12.15417,5.14503 -1.72487,3.33554 -1.76973,5.82313 -0.1432,7.94163 1.86121,2.42415 4.5588,3.57805 13.76641,5.8886 17.25218,4.32924 23.18256,9.19978 23.18256,19.03952 0,6.13294 -2.43653,10.47976 -8.11168,14.47138 -3.93731,2.76931 -5.06933,3.03925 -13.95203,3.32702 -8.95293,0.29004 -10.073,0.10536 -15.16219,-2.5 z M 794.11951,315.6703 c -8.27202,-19.34366 -15.17042,-35.76899 -15.32977,-36.50072 -0.15936,-0.73173 0.67038,-1.98934 1.84387,-2.79469 2.06494,-1.41715 2.89914,-0.44834 25.92365,30.10676 13.62126,18.07634 23.39525,31.91693 22.8664,32.38028 -0.50801,0.44508 -5.27526,3.32236 -10.59389,6.39396 l -9.67022,5.58472 z M 391.5,321.27954 c -9.9,-5.788 -28.44911,-16.57997 -41.22025,-23.98217 l -23.22025,-13.45855 1.60344,-2.44715 c 1.44358,-2.20319 1.81447,-2.31029 3.72025,-1.07431 1.16424,0.75507 19.35206,11.3486 40.41736,23.54119 l 38.30054,22.16835 55.69946,-32.15485 c 30.6347,-17.68517 57.6141,-33.26024 59.95424,-34.61128 l 4.25478,-2.45642 24.74522,14.27461 c 13.60986,7.85103 33.40771,19.24032 43.99521,25.30954 10.5875,6.06921 19.25,11.52865 19.25,12.13208 0,0.60344 -0.5625,1.83047 -1.25,2.72673 -1.11586,1.45469 -2.91337,0.65726 -16.75,-7.43078 -8.525,-4.9832 -27.82443,-16.15821 -42.88761,-24.83336 l -27.38761,-15.77301 -7.11239,4.25776 C 499.25899,282.04683 411.79535,331.98299 410.75624,331.90158 410.06531,331.84745 401.4,327.06753 391.5,321.27954 Z M 683.57164,310.469 c -1.5484,-2.36316 -1.49466,-2.42524 5.68259,-6.56483 3.98517,-2.29851 10.84577,-6.30877 15.24577,-8.91169 23.41599,-13.85226 27.7209,-16.05404 29.11949,-14.89331 3.46979,2.87967 4.41281,2.19843 -32.80208,23.69624 l -15.68258,9.05931 z m 214.13679,-4.16633 c -1.10904,-0.28805 -1.60793,-1.10105 -1.30952,-2.134 0.26512,-0.91777 0.9928,-3.69367 1.61704,-6.16867 3.79406,-15.0426 4.46845,-16.24535 7.89333,-14.07723 1.18444,0.74981 0.94908,2.66189 -1.47522,11.98469 -1.58647,6.1009 -3.34565,11.04034 -3.90928,10.97654 -0.56363,-0.0638 -1.83099,-0.3254 -2.81635,-0.58133 z M 883.75,301.30445 c -2.18364,-0.56288 -2.24233,0.19399 0.88822,-11.45563 2.58683,-9.6263 2.6891,-9.80537 5.25,-9.1925 1.43648,0.34377 2.71418,0.70163 2.83934,0.79525 0.60595,0.45325 -5.51,19.9598 -6.30821,20.11976 -0.50564,0.10132 -1.70685,-0.0188 -2.66935,-0.26688 z m -14.09278,-5.01164 c -1.32749,-0.34232 -1.6834,-1.07886 -1.2728,-2.634 0.3135,-1.18735 1.35492,-5.19631 2.31428,-8.90881 1.64798,-6.37735 1.90411,-6.75 4.63942,-6.75 2.51032,0 2.81681,0.29907 2.3058,2.25 -0.32414,1.2375 -1.3589,5.5125 -2.29947,9.5 -0.94058,3.9875 -2.19036,7.1978 -2.77729,7.134 -0.58694,-0.0638 -1.89641,-0.32984 -2.90994,-0.59119 z M 855.75,291.30445 c -2.18694,-0.56373 -2.17756,-1.28549 0.12088,-9.30445 1.65472,-5.77314 2.12263,-6.46963 4.18432,-6.22844 1.27669,0.14936 2.53078,0.48109 2.78687,0.73718 0.75647,0.75646 -3.35135,14.83896 -4.39058,15.05187 -0.52332,0.10722 -1.73899,-0.008 -2.70149,-0.25616 z M 267,260 v -31 l 4.25,0.0241 4.25,0.0241 15.5,23.3763 15.5,23.37629 0.5,-23.15039 0.5,-23.1504 h 4 4 l 0.26445,30.75 0.26445,30.75 -4.76445,-0.0257 L 306.5,290.9486 290.75256,267.2243 275.00513,243.5 275.00256,267.25 275,291 h -4 -4 z m 480.23555,0.25 0.26445,-30.75 12.85817,-0.28068 c 14.21717,-0.31036 22.8464,0.85346 26.64183,3.59316 3.43807,2.48175 7,9.82518 7,14.43153 0,4.52372 -2.25179,10.33065 -5.23901,13.51041 C 785.48613,264.24034 777.95768,266 766.3185,266 H 756 v 12.5 12.5 h -4.51445 -4.51445 z m 33.96393,-3.64013 c 3.72364,-2.4466 5.37204,-7.75894 3.91579,-12.61947 -1.77094,-5.91087 -3.02639,-6.43433 -16.76561,-6.9904 l -12.35389,-0.5 0.002,11.37584 0.002,11.37583 11.25,-0.43406 c 8.54818,-0.32982 11.89831,-0.86003 13.94948,-2.20774 z M 841.75,286.30445 c -2.11608,-0.54546 -2.10721,0.0286 -0.12173,-7.87561 1.46892,-5.84778 1.83593,-6.41849 3.75,-5.83129 3.10329,0.95203 3.08935,0.88364 1.54344,7.57525 -1.44225,6.2429 -2.03121,6.94118 -5.17171,6.13165 z m -14,-5 c -2.0597,-0.53093 -2.10403,-1.01282 -0.63129,-6.86163 1.10894,-4.404 2.72908,-5.46239 5.58388,-3.64779 0.93472,0.59414 0.92399,1.85647 -0.0482,5.66741 -1.28399,5.03325 -1.87995,5.62163 -4.9044,4.84201 z m -13.58003,-5.42354 c -2.0103,-0.75551 -2.23598,-1.32201 -1.64465,-4.12829 0.8866,-4.20752 1.52334,-4.81416 4.29284,-4.08992 1.96515,0.5139 2.19082,1.03237 1.61799,3.71725 -1.03134,4.83389 -1.64831,5.48481 -4.26618,4.50096 z m -13.99033,-5.00061 c -3.38487,-1.26608 -2.63244,-5.27067 1.07036,-5.69672 2.30299,-0.26499 2.74751,0.0601 2.73469,2 -0.0237,3.58388 -1.15869,4.68657 -3.80505,3.69672 z M 288,172.09223 v -48.90777 l -36.75,-21.249 C 164.3717,51.702064 169.88421,55.091962 171.14146,52.673041 c 0.6212,-1.195172 1.23255,-2.299592 1.35855,-2.454266 0.12601,-0.154673 3.55255,1.681934 7.61455,4.08135 6.66714,3.938275 47.58513,27.514702 93.80155,54.047265 16.87201,9.68612 17.49684,9.95137 20,8.4905 C 295.33725,116.0085 316.075,104.05708 340,90.279182 c 23.925,-13.777901 49.35,-28.443188 56.5,-32.589525 11.65257,-6.75741 13.13096,-7.369421 14.26348,-5.904664 0.69491,0.898774 1.11157,2.10233 0.92591,2.67457 C 411.50373,55.031803 384.95811,70.8 352.69912,89.5 l -58.6527,34 -0.0232,48.75 L 294,221 h -3 -3 z M 757,191.5 V 162 h 3 3 v 29.5 29.5 h -3 -3 z m 21,0 V 162 h 3 3 v 29.5 29.5 h -3 -3 z m -14.5,-38.37968 c -8.72185,-2.30322 -15.96085,-8.52197 -19.86992,-17.06951 -1.63978,-3.58553 -2.08641,-6.58725 -2.10565,-14.15163 -0.023,-9.02239 0.18693,-10.01649 3.48368,-16.5 5.61805,-11.04866 14.9231,-16.088259 27.99189,-15.160359 11.06299,0.785486 19.06556,6.394118 23.90667,16.755089 2.20513,4.71943 2.5692,6.86337 2.54823,15.00609 -0.0287,11.15738 -2.26409,17.45997 -8.2667,23.30805 -6.70137,6.52885 -19.19713,10.05455 -27.6882,7.81227 z m 13.09577,-7.59292 c 14.37463,-4.2688 19.84563,-24.97881 10.49412,-39.7246 -8.13301,-12.824439 -29.08099,-10.996303 -35.39268,3.08873 -2.98537,6.6621 -2.97078,20.00993 0.0281,25.70315 2.61002,4.95498 8.31684,10.15728 12.04303,10.97834 1.50241,0.33106 3.18166,0.75203 3.73166,0.9355 2.06366,0.6884 4.27828,0.44952 9.09577,-0.98112 z" />
</svg>
